<?xml version="1.0" encoding="UTF-8"?>
<!DOCTYPE svg PUBLIC "-//W3C//DTD SVG 1.1//EN" "http://www.w3.org/Graphics/SVG/1.1/DTD/svg11.dtd">
<svg xmlns="http://www.w3.org/2000/svg" version="1.1" width="1024px" height="1024px" style="shape-rendering:geometricPrecision; text-rendering:geometricPrecision; image-rendering:optimizeQuality; fill-rule:evenodd; clip-rule:evenodd" xmlns:xlink="http://www.w3.org/1999/xlink">
<g><path style="opacity:1" fill="#080808" d="M -0.5,-0.5 C 340.833,-0.5 682.167,-0.5 1023.5,-0.5C 1023.5,340.833 1023.5,682.167 1023.5,1023.5C 682.167,1023.5 340.833,1023.5 -0.5,1023.5C -0.5,682.167 -0.5,340.833 -0.5,-0.5 Z"/></g>
<g><path style="opacity:1" fill="#031023" d="M 495.5,364.5 C 500.656,363.834 505.989,363.501 511.5,363.5C 519.068,363.29 526.401,363.956 533.5,365.5C 520.848,364.739 508.181,364.405 495.5,364.5 Z"/></g>
<g><path style="opacity:1" fill="#6ec1ed" d="M 495.5,364.5 C 508.181,364.405 520.848,364.739 533.5,365.5C 539.392,366.364 545.392,367.364 551.5,368.5C 550.726,369.147 549.726,369.48 548.5,369.5C 530.267,366.688 511.934,365.854 493.5,367C 490.68,368.137 487.68,368.304 484.5,367.5C 479.254,368.727 473.921,369.561 468.5,370C 466.488,372.779 463.988,373.279 461,371.5C 452.914,373.63 444.747,375.297 436.5,376.5C 455.518,369.963 475.185,365.963 495.5,364.5 Z"/></g>
<g><path style="opacity:1" fill="#71c6f0" d="M 554.5,369.5 C 576.382,373.349 597.048,380.349 616.5,390.5C 606.514,386.561 596.514,382.728 586.5,379C 575.451,375.266 564.118,372.433 552.5,370.5C 552.957,369.702 553.624,369.369 554.5,369.5 Z"/></g>
<g><path style="opacity:1" fill="#5bbafd" d="M 551.5,368.5 C 552.791,368.263 553.791,368.596 554.5,369.5C 553.624,369.369 552.957,369.702 552.5,370.5C 564.118,372.433 575.451,375.266 586.5,379C 596.514,382.728 606.514,386.561 616.5,390.5C 623.626,394.738 630.959,398.904 638.5,403C 637.5,403.333 636.5,403.667 635.5,404C 640.833,406.333 646.167,408.667 651.5,411C 656.92,415.222 662.586,419.222 668.5,423C 671.771,426.852 675.771,429.852 680.5,432C 681.833,433 681.833,434 680.5,435C 683.799,438.482 687.799,440.649 692.5,441.5C 696.436,443.766 699.769,446.766 702.5,450.5C 702.5,450.833 702.5,451.167 702.5,451.5C 699.626,450.937 696.96,449.937 694.5,448.5C 694.649,449.552 694.483,450.552 694,451.5C 693.576,449.485 692.742,447.651 691.5,446C 691.944,444.238 692.444,444.405 693,446.5C 693.783,444.681 693.283,443.348 691.5,442.5C 690.459,444.991 689.626,444.991 689,442.5C 687.513,443.155 686.347,444.155 685.5,445.5C 686.934,447.22 687.767,449.22 688,451.5C 688.333,451.167 688.667,450.833 689,450.5C 689.672,454.542 691.839,456.042 695.5,455C 694.299,455.903 693.465,457.069 693,458.5C 692.333,455.833 691.667,455.833 691,458.5C 690.333,456.5 689,455.167 687,454.5C 682.263,455.469 677.43,455.803 672.5,455.5C 672.173,451.114 669.84,448.114 665.5,446.5C 664.065,447.824 663.065,449.49 662.5,451.5C 655.949,452.799 655.115,455.466 660,459.5C 661,458.167 662,458.167 663,459.5C 662.914,457.359 663.081,455.026 663.5,452.5C 665.5,452.833 667.5,453.167 669.5,453.5C 669.649,454.552 669.483,455.552 669,456.5C 667.126,458.668 665.293,460.168 663.5,461C 663.293,463.177 663.96,465.343 665.5,467.5C 656.31,460.739 647.31,453.739 638.5,446.5C 620.565,432.114 600.565,421.281 578.5,414C 577.833,413.333 577.167,412.667 576.5,412C 570.522,410.578 564.522,409.244 558.5,408C 557.333,407.5 556.5,406.667 556,405.5C 555.667,405.833 555.333,406.167 555,406.5C 530.023,401.09 504.857,400.257 479.5,404C 477.256,404.05 475.589,404.883 474.5,406.5C 474.167,406.5 473.833,406.5 473.5,406.5C 470.758,406.036 468.258,405.703 466,405.5C 461.5,407.667 456.833,408.333 452,407.5C 450.921,409.394 449.587,409.727 448,408.5C 447.024,410.887 445.191,412.054 442.5,412C 441.833,413.333 440.833,414.333 439.5,415C 436.833,415.333 434.167,415.667 431.5,416C 428.834,419.004 425.501,421.004 421.5,422C 419.937,422.759 418.937,423.926 418.5,425.5C 414.983,427.424 411.316,429.091 407.5,430.5C 405.801,430.34 404.134,430.506 402.5,431C 401.195,433.148 399.362,434.648 397,435.5C 396.586,435.043 396.086,434.709 395.5,434.5C 394.757,435.908 393.923,437.241 393,438.5C 392.667,438.167 392.333,437.833 392,437.5C 387.703,441.201 383.203,444.701 378.5,448C 377.177,448.816 376.511,449.983 376.5,451.5C 368.233,457.76 360.233,464.427 352.5,471.5C 354.553,468.464 356.553,465.464 358.5,462.5C 359.552,462.649 360.552,462.483 361.5,462C 363.242,460.058 365.242,458.391 367.5,457C 368.87,455.559 369.87,453.892 370.5,452C 368.304,450.778 366.804,448.944 366,446.5C 364.372,447.819 364.539,449.152 366.5,450.5C 362.834,451.97 359.501,454.137 356.5,457C 355.167,457.667 353.833,457.667 352.5,457C 355.441,453.148 359.107,450.148 363.5,448C 359.299,445.497 355.632,445.997 352.5,449.5C 350.172,448.67 347.838,447.837 345.5,447C 347.285,445.837 349.285,445.17 351.5,445C 352.337,443.989 352.67,442.822 352.5,441.5C 350.143,441.337 347.81,441.503 345.5,442C 344.022,447.272 341.355,447.938 337.5,444C 339.53,442.069 341.863,440.569 344.5,439.5C 343.667,437.833 342.833,436.167 342,434.5C 339.444,435.219 338.277,436.886 338.5,439.5C 336.173,439.247 334.173,439.914 332.5,441.5C 331.136,444.363 328.97,446.363 326,447.5C 325.383,448.449 325.549,449.282 326.5,450C 325.299,450.903 324.465,452.069 324,453.5C 322.605,452.185 321.605,452.519 321,454.5C 320.667,454.167 320.333,453.833 320,453.5C 318.933,454.191 317.766,454.691 316.5,455C 312.521,458.648 308.855,462.648 305.5,467C 304.906,467.464 304.239,467.631 303.5,467.5C 315.241,453.09 328.575,440.424 343.5,429.5C 353.917,422.963 363.917,415.797 373.5,408C 388.706,399.084 403.706,390.918 418.5,383.5C 424.121,380.4 430.121,378.067 436.5,376.5C 444.747,375.297 452.914,373.63 461,371.5C 463.988,373.279 466.488,372.779 468.5,370C 473.921,369.561 479.254,368.727 484.5,367.5C 487.68,368.304 490.68,368.137 493.5,367C 511.934,365.854 530.267,366.688 548.5,369.5C 549.726,369.48 550.726,369.147 551.5,368.5 Z"/></g>
<g><path style="opacity:1" fill="#72c6f0" d="M 418.5,383.5 C 403.706,390.918 388.706,399.084 373.5,408C 363.917,415.797 353.917,422.963 343.5,429.5C 365.717,409.879 390.717,394.546 418.5,383.5 Z"/></g>
<g><path style="opacity:1" fill="#080809" d="M 542.5,406.5 C 577.451,413.031 609.451,426.364 638.5,446.5C 647.31,453.739 656.31,460.739 665.5,467.5C 676.473,478.139 687.473,488.806 698.5,499.5C 701.921,504.426 705.921,508.926 710.5,513C 704.276,519.961 697.942,526.794 691.5,533.5C 685.797,539.205 679.797,544.538 673.5,549.5C 671.565,550.15 669.565,550.483 667.5,550.5C 667.649,551.552 667.483,552.552 667,553.5C 663.247,555.084 660.747,557.75 659.5,561.5C 651.809,567.531 644.142,573.531 636.5,579.5C 632.827,581 629.494,583 626.5,585.5C 623.741,586.642 621.074,587.976 618.5,589.5C 614.007,586.087 611.341,587.087 610.5,592.5C 607.178,593.957 603.678,594.957 600,595.5C 598.449,594.946 596.949,594.28 595.5,593.5C 594.833,593.833 594.167,594.167 593.5,594.5C 595.482,595.216 597.149,596.383 598.5,598C 596.444,598.311 594.444,598.811 592.5,599.5C 591.614,600.325 591.281,601.325 591.5,602.5C 588.572,602.148 585.738,601.482 583,600.5C 582.729,602.807 583.895,603.974 586.5,604C 584.119,604.223 582.453,605.39 581.5,607.5C 574.834,610.044 568.168,612.377 561.5,614.5C 559.565,615.15 557.565,615.483 555.5,615.5C 546.241,617.324 536.908,618.657 527.5,619.5C 513.485,619.625 499.485,619.291 485.5,618.5C 483.5,618.5 481.5,618.5 479.5,618.5C 476.257,617.51 472.924,616.51 469.5,615.5C 462.835,612.687 455.835,610.687 448.5,609.5C 437.855,606.346 427.522,602.346 417.5,597.5C 417.167,597.5 416.833,597.5 416.5,597.5C 409.902,593.528 403.235,589.528 396.5,585.5C 396.167,585.5 395.833,585.5 395.5,585.5C 388.016,579.923 380.35,574.59 372.5,569.5C 368.056,564.781 363.056,560.781 357.5,557.5C 345.527,545.861 333.527,534.194 321.5,522.5C 321.5,521.833 321.167,521.5 320.5,521.5C 317.856,518.52 315.189,515.52 312.5,512.5C 325.211,498.123 338.545,484.457 352.5,471.5C 360.233,464.427 368.233,457.76 376.5,451.5C 386.697,444.24 397.031,437.24 407.5,430.5C 411.316,429.091 414.983,427.424 418.5,425.5C 436.024,416.549 454.357,410.215 473.5,406.5C 473.833,406.5 474.167,406.5 474.5,406.5C 478.119,405.756 481.785,405.423 485.5,405.5C 504.525,404.154 523.525,404.488 542.5,406.5 Z"/></g>
<g><path style="opacity:1" fill="#69bbe9" d="M 638.5,446.5 C 609.451,426.364 577.451,413.031 542.5,406.5C 531.419,404.311 520.086,403.311 508.5,403.5C 500.606,403.311 492.939,403.978 485.5,405.5C 481.785,405.423 478.119,405.756 474.5,406.5C 475.589,404.883 477.256,404.05 479.5,404C 504.857,400.257 530.023,401.09 555,406.5C 555.333,406.167 555.667,405.833 556,405.5C 556.5,406.667 557.333,407.5 558.5,408C 564.522,409.244 570.522,410.578 576.5,412C 577.167,412.667 577.833,413.333 578.5,414C 600.565,421.281 620.565,432.114 638.5,446.5 Z"/></g>
<g><path style="opacity:1" fill="#060f24" d="M 542.5,406.5 C 523.525,404.488 504.525,404.154 485.5,405.5C 492.939,403.978 500.606,403.311 508.5,403.5C 520.086,403.311 531.419,404.311 542.5,406.5 Z"/></g>
<g><path style="opacity:1" fill="#68beee" d="M 473.5,406.5 C 454.357,410.215 436.024,416.549 418.5,425.5C 418.937,423.926 419.937,422.759 421.5,422C 425.501,421.004 428.834,419.004 431.5,416C 434.167,415.667 436.833,415.333 439.5,415C 440.833,414.333 441.833,413.333 442.5,412C 445.191,412.054 447.024,410.887 448,408.5C 449.587,409.727 450.921,409.394 452,407.5C 456.833,408.333 461.5,407.667 466,405.5C 468.258,405.703 470.758,406.036 473.5,406.5 Z"/></g>
<g><path style="opacity:1" fill="#68bfee" d="M 616.5,390.5 C 631.21,397.023 645.21,404.856 658.5,414C 670.453,422.466 681.786,431.633 692.5,441.5C 687.799,440.649 683.799,438.482 680.5,435C 681.833,434 681.833,433 680.5,432C 675.771,429.852 671.771,426.852 668.5,423C 662.586,419.222 656.92,415.222 651.5,411C 646.167,408.667 640.833,406.333 635.5,404C 636.5,403.667 637.5,403.333 638.5,403C 630.959,398.904 623.626,394.738 616.5,390.5 Z"/></g>
<g><path style="opacity:1" fill="#4aaafc" d="M 563.5,448.5 C 565.411,449.075 567.078,450.075 568.5,451.5C 571.129,454.631 573.962,457.631 577,460.5C 579.694,463.892 581.86,467.559 583.5,471.5C 579.961,466.939 576.295,462.439 572.5,458C 570.925,458.379 569.425,458.212 568,457.5C 567.642,461.413 565.976,461.413 563,457.5C 562.717,455.398 563.55,453.731 565.5,452.5C 562.951,451.169 561.284,452.002 560.5,455C 559.552,455.483 558.552,455.649 557.5,455.5C 557.5,456.5 557.5,457.5 557.5,458.5C 555.533,458.739 553.699,458.406 552,457.5C 551.667,458.5 551.333,459.5 551,460.5C 549.991,458.975 549.491,457.308 549.5,455.5C 547.516,455.617 545.85,454.95 544.5,453.5C 543.702,455.078 543.202,456.744 543,458.5C 540.457,457.124 540.291,455.957 542.5,455C 540.191,451.714 538.024,451.881 536,455.5C 532.485,454.198 528.818,453.531 525,453.5C 519.16,454.71 513.327,454.71 507.5,453.5C 505.26,453.935 503.094,454.602 501,455.5C 500.167,455.333 499.333,455.167 498.5,455C 499.337,453.989 499.67,452.822 499.5,451.5C 498.448,451.649 497.448,451.483 496.5,451C 494.37,449.168 492.203,447.334 490,445.5C 489.517,446.448 489.351,447.448 489.5,448.5C 486.569,447.994 483.735,447.994 481,448.5C 480.055,448.095 479.388,447.428 479,446.5C 477.771,448.947 476.271,449.113 474.5,447C 475.167,446.667 475.833,446.333 476.5,446C 475.216,445.316 474.049,445.483 473,446.5C 471.148,444.77 471.314,443.604 473.5,443C 472.552,442.517 471.552,442.351 470.5,442.5C 477.206,437.654 484.706,435.32 493,435.5C 496.867,435.322 500.367,434.156 503.5,432C 507.833,431.333 512.167,431.333 516.5,432C 518.691,434.706 521.525,436.206 525,436.5C 529.237,435.713 533.737,435.546 538.5,436C 547.134,439.65 555.468,443.817 563.5,448.5 Z"/></g>
<g><path style="opacity:1" fill="#64b8e7" d="M 407.5,430.5 C 397.031,437.24 386.697,444.24 376.5,451.5C 376.511,449.983 377.177,448.816 378.5,448C 383.203,444.701 387.703,441.201 392,437.5C 392.333,437.833 392.667,438.167 393,438.5C 393.923,437.241 394.757,435.908 395.5,434.5C 396.086,434.709 396.586,435.043 397,435.5C 399.362,434.648 401.195,433.148 402.5,431C 404.134,430.506 405.801,430.34 407.5,430.5 Z"/></g>
<g><path style="opacity:1" fill="#58afeb" d="M 563.5,448.5 C 555.468,443.817 547.134,439.65 538.5,436C 533.737,435.546 529.237,435.713 525,436.5C 521.525,436.206 518.691,434.706 516.5,432C 512.167,431.333 507.833,431.333 503.5,432C 500.367,434.156 496.867,435.322 493,435.5C 484.706,435.32 477.206,437.654 470.5,442.5C 462.025,447.075 454.691,453.075 448.5,460.5C 448.167,460.5 447.833,460.5 447.5,460.5C 457.12,448.071 469.453,439.238 484.5,434C 509.255,426.719 532.922,429.386 555.5,442C 558.42,443.946 561.087,446.113 563.5,448.5 Z"/></g>
<g><path style="opacity:1" fill="#46a5fb" d="M 470.5,442.5 C 471.552,442.351 472.552,442.517 473.5,443C 471.314,443.604 471.148,444.77 473,446.5C 474.049,445.483 475.216,445.316 476.5,446C 475.833,446.333 475.167,446.667 474.5,447C 476.271,449.113 477.771,448.947 479,446.5C 479.388,447.428 480.055,448.095 481,448.5C 483.735,447.994 486.569,447.994 489.5,448.5C 489.351,447.448 489.517,446.448 490,445.5C 492.203,447.334 494.37,449.168 496.5,451C 497.448,451.483 498.448,451.649 499.5,451.5C 499.67,452.822 499.337,453.989 498.5,455C 499.333,455.167 500.167,455.333 501,455.5C 503.094,454.602 505.26,453.935 507.5,453.5C 513.327,454.71 519.16,454.71 525,453.5C 528.818,453.531 532.485,454.198 536,455.5C 538.024,451.881 540.191,451.714 542.5,455C 540.291,455.957 540.457,457.124 543,458.5C 543.202,456.744 543.702,455.078 544.5,453.5C 545.85,454.95 547.516,455.617 549.5,455.5C 549.491,457.308 549.991,458.975 551,460.5C 551.333,459.5 551.667,458.5 552,457.5C 553.699,458.406 555.533,458.739 557.5,458.5C 557.5,457.5 557.5,456.5 557.5,455.5C 558.552,455.649 559.552,455.483 560.5,455C 561.284,452.002 562.951,451.169 565.5,452.5C 563.55,453.731 562.717,455.398 563,457.5C 565.976,461.413 567.642,461.413 568,457.5C 569.425,458.212 570.925,458.379 572.5,458C 576.295,462.439 579.961,466.939 583.5,471.5C 584.346,476.185 586.013,480.519 588.5,484.5C 587.318,482.9 585.985,482.567 584.5,483.5C 583.758,481.892 583.591,480.225 584,478.5C 583.586,478.957 583.086,479.291 582.5,479.5C 581.094,478.049 579.594,476.716 578,475.5C 577.682,477.061 576.849,478.228 575.5,479C 576.784,479.684 577.951,479.517 579,478.5C 579.84,481.318 579.006,483.484 576.5,485C 569.937,483.786 563.27,483.119 556.5,483C 557.833,483.667 557.833,484.333 556.5,485C 560.723,487.244 560.389,488.41 555.5,488.5C 555.649,489.552 555.483,490.552 555,491.5C 554.346,490.304 553.846,490.304 553.5,491.5C 554.025,492.192 554.692,492.692 555.5,493C 554.232,495.163 554.232,497.33 555.5,499.5C 556.7,502.969 556.7,506.302 555.5,509.5C 555.768,507.901 555.434,506.568 554.5,505.5C 550.449,486.281 538.782,474.448 519.5,470C 505.631,467.574 493.297,470.741 482.5,479.5C 483.812,476.464 486.146,474.298 489.5,473C 487.646,470.704 486.646,468.371 486.5,466C 483.571,466.557 481.071,468.057 479,470.5C 476.366,468.406 473.533,468.073 470.5,469.5C 469.107,468.137 467.441,467.304 465.5,467C 465.833,466.667 466.167,466.333 466.5,466C 465.584,465.626 464.75,465.126 464,464.5C 460.828,465.997 458.995,464.997 458.5,461.5C 457.167,461.5 455.833,461.5 454.5,461.5C 454.719,460.325 454.386,459.325 453.5,458.5C 452.158,460.005 450.492,460.672 448.5,460.5C 454.691,453.075 462.025,447.075 470.5,442.5 Z"/></g>
<g><path style="opacity:1" fill="#51b1fb" d="M 352.5,471.5 C 338.545,484.457 325.211,498.123 312.5,512.5C 315.189,515.52 317.856,518.52 320.5,521.5C 318.589,520.925 316.922,519.925 315.5,518.5C 310.046,513.581 310.546,509.248 317,505.5C 318.145,503.749 318.645,501.916 318.5,500C 320.76,498.94 323.093,497.774 325.5,496.5C 325.5,495.5 325.5,494.5 325.5,493.5C 328.245,493.627 330.245,492.46 331.5,490C 330.535,488.158 330.535,486.658 331.5,485.5C 331.418,482.83 332.585,482.83 335,485.5C 335.333,483.833 335.667,482.167 336,480.5C 336.388,481.428 337.055,482.095 338,482.5C 339.963,481.375 341.796,480.041 343.5,478.5C 342.723,476.461 341.557,475.795 340,476.5C 338.493,475.495 337.327,474.162 336.5,472.5C 335.781,474.517 334.614,476.183 333,477.5C 328.539,476.753 324.039,476.253 319.5,476C 320.386,474.098 320.053,472.265 318.5,470.5C 316.851,471.648 315.351,472.981 314,474.5C 311.904,473.285 312.071,472.451 314.5,472C 312.152,471.89 310.652,470.723 310,468.5C 309.333,469.167 308.667,469.833 308,470.5C 306.667,470.5 305.333,470.5 304,470.5C 302.66,473.202 301.327,475.869 300,478.5C 298.951,477.483 297.784,477.316 296.5,478C 293.855,479.044 291.522,480.544 289.5,482.5C 293.439,476.892 298.106,471.892 303.5,467.5C 304.239,467.631 304.906,467.464 305.5,467C 308.855,462.648 312.521,458.648 316.5,455C 317.766,454.691 318.933,454.191 320,453.5C 320.333,453.833 320.667,454.167 321,454.5C 321.605,452.519 322.605,452.185 324,453.5C 324.465,452.069 325.299,450.903 326.5,450C 325.549,449.282 325.383,448.449 326,447.5C 328.97,446.363 331.136,444.363 332.5,441.5C 334.173,439.914 336.173,439.247 338.5,439.5C 338.277,436.886 339.444,435.219 342,434.5C 342.833,436.167 343.667,437.833 344.5,439.5C 341.863,440.569 339.53,442.069 337.5,444C 341.355,447.938 344.022,447.272 345.5,442C 347.81,441.503 350.143,441.337 352.5,441.5C 352.67,442.822 352.337,443.989 351.5,445C 349.285,445.17 347.285,445.837 345.5,447C 347.838,447.837 350.172,448.67 352.5,449.5C 355.632,445.997 359.299,445.497 363.5,448C 359.107,450.148 355.441,453.148 352.5,457C 353.833,457.667 355.167,457.667 356.5,457C 359.501,454.137 362.834,451.97 366.5,450.5C 364.539,449.152 364.372,447.819 366,446.5C 366.804,448.944 368.304,450.778 370.5,452C 369.87,453.892 368.87,455.559 367.5,457C 365.242,458.391 363.242,460.058 361.5,462C 360.552,462.483 359.552,462.649 358.5,462.5C 356.553,465.464 354.553,468.464 352.5,471.5 Z"/></g>
<g><path style="opacity:1" fill="#5db2e3" d="M 702.5,450.5 C 711.812,457.812 720.146,466.146 727.5,475.5C 726.761,475.631 726.094,475.464 725.5,475C 717.8,467.16 710.133,459.327 702.5,451.5C 702.5,451.167 702.5,450.833 702.5,450.5 Z"/></g>
<g><path style="opacity:1" fill="#42a0fc" d="M 482.5,479.5 C 481.167,479.5 479.833,479.5 478.5,479.5C 478.5,480.5 478.5,481.5 478.5,482.5C 477.5,482.5 476.5,482.5 475.5,482.5C 475.631,481.761 475.464,481.094 475,480.5C 473.415,481.376 472.415,482.709 472,484.5C 470.853,483.542 469.853,483.875 469,485.5C 467.5,483.667 466,481.833 464.5,480C 462.275,479.439 460.275,478.439 458.5,477C 454.661,477.846 450.994,477.179 447.5,475C 445.963,473.89 445.297,472.39 445.5,470.5C 443.379,470.325 441.379,470.659 439.5,471.5C 441.4,467.268 444.067,463.601 447.5,460.5C 447.833,460.5 448.167,460.5 448.5,460.5C 450.492,460.672 452.158,460.005 453.5,458.5C 454.386,459.325 454.719,460.325 454.5,461.5C 455.833,461.5 457.167,461.5 458.5,461.5C 458.995,464.997 460.828,465.997 464,464.5C 464.75,465.126 465.584,465.626 466.5,466C 466.167,466.333 465.833,466.667 465.5,467C 467.441,467.304 469.107,468.137 470.5,469.5C 473.533,468.073 476.366,468.406 479,470.5C 481.071,468.057 483.571,466.557 486.5,466C 486.646,468.371 487.646,470.704 489.5,473C 486.146,474.298 483.812,476.464 482.5,479.5 Z"/></g>
<g><path style="opacity:1" fill="#50b1fd" d="M 702.5,451.5 C 710.133,459.327 717.8,467.16 725.5,475C 726.094,475.464 726.761,475.631 727.5,475.5C 730.747,481.083 734.747,486.083 739.5,490.5C 738.503,490.47 737.836,490.97 737.5,492C 736.795,493.422 736.461,494.755 736.5,496C 737.551,497.385 738.884,498.385 740.5,499C 740.167,499.333 739.833,499.667 739.5,500C 740.64,501.973 741.973,503.807 743.5,505.5C 742.311,506.429 740.978,506.762 739.5,506.5C 739.716,504.319 738.883,502.653 737,501.5C 736.667,501.833 736.333,502.167 736,502.5C 735.506,500.866 735.34,499.199 735.5,497.5C 734.127,497.657 732.793,497.49 731.5,497C 732.742,491.696 731.575,491.196 728,495.5C 726.784,493.032 725.117,491.032 723,489.5C 717.061,491.55 710.895,492.05 704.5,491C 701.17,489.159 698.504,486.659 696.5,483.5C 696.167,483.667 695.833,483.833 695.5,484C 696.5,485 697.5,486 698.5,487C 696.655,487.187 694.989,488.02 693.5,489.5C 694.51,492.255 696.343,494.255 699,495.5C 699.692,496.437 699.525,497.103 698.5,497.5C 693.557,491.726 688.057,486.392 682,481.5C 681.517,480.552 681.351,479.552 681.5,478.5C 680.448,478.649 679.448,478.483 678.5,478C 675.587,475.043 672.921,471.876 670.5,468.5C 669.914,468.709 669.414,469.043 669,469.5C 668.184,468.177 667.017,467.511 665.5,467.5C 663.96,465.343 663.293,463.177 663.5,461C 665.293,460.168 667.126,458.668 669,456.5C 669.483,455.552 669.649,454.552 669.5,453.5C 667.5,453.167 665.5,452.833 663.5,452.5C 663.081,455.026 662.914,457.359 663,459.5C 662,458.167 661,458.167 660,459.5C 655.115,455.466 655.949,452.799 662.5,451.5C 663.065,449.49 664.065,447.824 665.5,446.5C 669.84,448.114 672.173,451.114 672.5,455.5C 677.43,455.803 682.263,455.469 687,454.5C 689,455.167 690.333,456.5 691,458.5C 691.667,455.833 692.333,455.833 693,458.5C 693.465,457.069 694.299,455.903 695.5,455C 691.839,456.042 689.672,454.542 689,450.5C 688.667,450.833 688.333,451.167 688,451.5C 687.767,449.22 686.934,447.22 685.5,445.5C 686.347,444.155 687.513,443.155 689,442.5C 689.626,444.991 690.459,444.991 691.5,442.5C 693.283,443.348 693.783,444.681 693,446.5C 692.444,444.405 691.944,444.238 691.5,446C 692.742,447.651 693.576,449.485 694,451.5C 694.483,450.552 694.649,449.552 694.5,448.5C 696.96,449.937 699.626,450.937 702.5,451.5 Z"/></g>
<g><path style="opacity:1" fill="#070b18" d="M 595.5,502.5 C 593.671,495.206 591.504,487.873 589,480.5C 587.643,477.102 585.81,474.102 583.5,471.5C 581.86,467.559 579.694,463.892 577,460.5C 573.962,457.631 571.129,454.631 568.5,451.5C 569.5,451.5 570.5,451.5 571.5,451.5C 571.413,448.402 571.913,448.068 573,450.5C 573.333,450.167 573.667,449.833 574,449.5C 574.808,454.429 576.641,458.762 579.5,462.5C 581.124,462.64 582.29,461.973 583,460.5C 584.255,461.211 585.421,462.044 586.5,463C 585.747,464.487 584.914,464.654 584,463.5C 583.18,465.728 583.513,467.728 585,469.5C 585.667,468.833 586.333,468.167 587,467.5C 587,469.5 587,471.5 587,473.5C 592.529,482.865 595.363,492.531 595.5,502.5 Z"/></g>
<g><path style="opacity:1" fill="#080809" d="M 554.5,505.5 C 554.653,511.869 554.32,518.203 553.5,524.5C 553.5,524.833 553.5,525.167 553.5,525.5C 550.689,527.768 548.855,530.768 548,534.5C 547.107,533.289 546.274,533.289 545.5,534.5C 545.709,535.086 546.043,535.586 546.5,536C 545.027,536.71 544.36,537.876 544.5,539.5C 542.5,540.167 540.5,540.833 538.5,541.5C 538.509,543.308 538.009,544.975 537,546.5C 536.667,545.833 536.333,545.167 536,544.5C 535.51,545.793 535.343,547.127 535.5,548.5C 530.764,551.976 525.431,554.309 519.5,555.5C 511.807,555.073 504.141,554.407 496.5,553.5C 493.62,553.06 490.954,552.06 488.5,550.5C 485.358,548.42 482.358,546.086 479.5,543.5C 475.155,538.811 471.821,533.478 469.5,527.5C 463.868,508.689 468.201,492.689 482.5,479.5C 493.297,470.741 505.631,467.574 519.5,470C 538.782,474.448 550.449,486.281 554.5,505.5 Z"/></g>
<g><path style="opacity:1" fill="#3d97f9" d="M 475.5,482.5 C 472.135,488.595 469.135,495.262 466.5,502.5C 466.662,500.473 466.495,498.473 466,496.5C 464.092,499.332 463.259,498.999 463.5,495.5C 456.154,496.328 449.32,494.994 443,491.5C 440.909,492.5 439.243,491.833 438,489.5C 437.309,491.891 436.309,491.891 435,489.5C 434.333,491.5 433.667,493.5 433,495.5C 432.667,495.167 432.333,494.833 432,494.5C 431.661,497.88 431.161,501.213 430.5,504.5C 429.165,515.816 430.165,526.816 433.5,537.5C 435.843,543.534 438.176,549.534 440.5,555.5C 438.684,553.882 437.351,551.882 436.5,549.5C 434.478,544.796 432.478,540.129 430.5,535.5C 430.5,535.167 430.5,534.833 430.5,534.5C 426.548,520.167 426.548,505.833 430.5,491.5C 434.529,485.431 437.529,478.764 439.5,471.5C 441.379,470.659 443.379,470.325 445.5,470.5C 445.297,472.39 445.963,473.89 447.5,475C 450.994,477.179 454.661,477.846 458.5,477C 460.275,478.439 462.275,479.439 464.5,480C 466,481.833 467.5,483.667 469,485.5C 469.853,483.875 470.853,483.542 472,484.5C 472.415,482.709 473.415,481.376 475,480.5C 475.464,481.094 475.631,481.761 475.5,482.5 Z"/></g>
<g><path style="opacity:1" fill="#49aafc" d="M 331.5,485.5 C 329.815,488.141 327.648,490.474 325,492.5C 321.751,491.73 318.585,490.73 315.5,489.5C 313.062,490.394 310.562,490.394 308,489.5C 306.187,489.827 304.52,490.493 303,491.5C 301.832,490.491 300.665,489.491 299.5,488.5C 298.119,489 297.453,490 297.5,491.5C 298.732,493.05 299.232,494.717 299,496.5C 296.132,495.639 293.798,493.972 292,491.5C 290.667,492.833 289.333,492.833 288,491.5C 287.033,492.678 286.533,494.011 286.5,495.5C 285.201,494.91 284.368,493.91 284,492.5C 283.658,494.619 282.825,494.953 281.5,493.5C 284.167,489.833 286.833,486.167 289.5,482.5C 291.522,480.544 293.855,479.044 296.5,478C 297.784,477.316 298.951,477.483 300,478.5C 301.327,475.869 302.66,473.202 304,470.5C 305.333,470.5 306.667,470.5 308,470.5C 308.667,469.833 309.333,469.167 310,468.5C 310.652,470.723 312.152,471.89 314.5,472C 312.071,472.451 311.904,473.285 314,474.5C 315.351,472.981 316.851,471.648 318.5,470.5C 320.053,472.265 320.386,474.098 319.5,476C 324.039,476.253 328.539,476.753 333,477.5C 334.614,476.183 335.781,474.517 336.5,472.5C 337.327,474.162 338.493,475.495 340,476.5C 341.557,475.795 342.723,476.461 343.5,478.5C 341.796,480.041 339.963,481.375 338,482.5C 337.055,482.095 336.388,481.428 336,480.5C 335.667,482.167 335.333,483.833 335,485.5C 332.585,482.83 331.418,482.83 331.5,485.5 Z"/></g>
<g><path style="opacity:1" fill="#4e97d4" d="M 583.5,471.5 C 585.81,474.102 587.643,477.102 589,480.5C 591.504,487.873 593.671,495.206 595.5,502.5C 595.5,509.167 595.5,515.833 595.5,522.5C 595.167,522.5 594.833,522.5 594.5,522.5C 594.498,516.477 594.165,510.477 593.5,504.5C 592.579,497.532 590.912,490.865 588.5,484.5C 586.013,480.519 584.346,476.185 583.5,471.5 Z"/></g>
<g><path style="opacity:1" fill="#4e9add" d="M 439.5,471.5 C 437.529,478.764 434.529,485.431 430.5,491.5C 430.5,491.167 430.5,490.833 430.5,490.5C 432.732,483.708 435.732,477.374 439.5,471.5 Z"/></g>
<g><path style="opacity:1" fill="#41a0fc" d="M 588.5,484.5 C 590.912,490.865 592.579,497.532 593.5,504.5C 592.636,503.312 591.636,502.145 590.5,501C 591.717,497.983 590.55,496.483 587,496.5C 585.07,496.908 583.236,497.575 581.5,498.5C 573.232,497.539 565.065,496.205 557,494.5C 555.934,496.152 555.434,497.819 555.5,499.5C 554.232,497.33 554.232,495.163 555.5,493C 554.692,492.692 554.025,492.192 553.5,491.5C 553.846,490.304 554.346,490.304 555,491.5C 555.483,490.552 555.649,489.552 555.5,488.5C 560.389,488.41 560.723,487.244 556.5,485C 557.833,484.333 557.833,483.667 556.5,483C 563.27,483.119 569.937,483.786 576.5,485C 579.006,483.484 579.84,481.318 579,478.5C 577.951,479.517 576.784,479.684 575.5,479C 576.849,478.228 577.682,477.061 578,475.5C 579.594,476.716 581.094,478.049 582.5,479.5C 583.086,479.291 583.586,478.957 584,478.5C 583.591,480.225 583.758,481.892 584.5,483.5C 585.985,482.567 587.318,482.9 588.5,484.5 Z"/></g>
<g><path style="opacity:1" fill="#5eb0e6" d="M 289.5,482.5 C 286.833,486.167 284.167,489.833 281.5,493.5C 276.458,497.337 272.625,501.67 270,506.5C 268.282,510.795 268.115,515.128 269.5,519.5C 266.785,514.222 266.952,508.888 270,503.5C 275.631,495.702 282.131,488.702 289.5,482.5 Z"/></g>
<g><path style="opacity:1" fill="#45a4fc" d="M 331.5,485.5 C 330.535,486.658 330.535,488.158 331.5,490C 330.245,492.46 328.245,493.627 325.5,493.5C 325.5,494.5 325.5,495.5 325.5,496.5C 323.093,497.774 320.76,498.94 318.5,500C 318.645,501.916 318.145,503.749 317,505.5C 310.546,509.248 310.046,513.581 315.5,518.5C 314.175,519.953 313.342,519.619 313,517.5C 309.676,520.416 308.842,519.749 310.5,515.5C 309.349,514.269 308.183,514.269 307,515.5C 305.174,513.821 303.008,512.654 300.5,512C 302.167,511.667 303.833,511.333 305.5,511C 305.167,510.667 304.833,510.333 304.5,510C 299.379,511.178 294.045,511.678 288.5,511.5C 288.778,513.346 288.111,514.68 286.5,515.5C 285.795,513.328 284.795,511.328 283.5,509.5C 282.5,509.833 281.833,510.5 281.5,511.5C 282.758,510.984 283.758,511.65 284.5,513.5C 283.359,514.425 283.359,515.259 284.5,516C 282.503,516.76 280.837,517.26 279.5,517.5C 280.641,518.425 280.641,519.259 279.5,520C 281.321,522.565 282.988,525.232 284.5,528C 283.991,529.169 283.158,530.002 282,530.5C 281.544,529.256 282.044,528.423 283.5,528C 281.833,527 280.167,526 278.5,525C 279.15,523.391 278.65,521.891 277,520.5C 276.667,521.167 276.333,521.833 276,522.5C 274.286,518.723 273.619,518.723 274,522.5C 276.19,526.222 278.356,529.889 280.5,533.5C 277.22,530.957 274.387,527.957 272,524.5C 270.906,522.922 270.072,521.255 269.5,519.5C 268.115,515.128 268.282,510.795 270,506.5C 272.625,501.67 276.458,497.337 281.5,493.5C 282.825,494.953 283.658,494.619 284,492.5C 284.368,493.91 285.201,494.91 286.5,495.5C 286.533,494.011 287.033,492.678 288,491.5C 289.333,492.833 290.667,492.833 292,491.5C 293.798,493.972 296.132,495.639 299,496.5C 299.232,494.717 298.732,493.05 297.5,491.5C 297.453,490 298.119,489 299.5,488.5C 300.665,489.491 301.832,490.491 303,491.5C 304.52,490.493 306.187,489.827 308,489.5C 310.562,490.394 313.062,490.394 315.5,489.5C 318.585,490.73 321.751,491.73 325,492.5C 327.648,490.474 329.815,488.141 331.5,485.5 Z"/></g>
<g><path style="opacity:1" fill="#3793fc" d="M 466.5,502.5 C 465.701,505.43 465.368,508.43 465.5,511.5C 463.088,511.306 462.088,509.973 462.5,507.5C 451.772,506.98 441.105,505.98 430.5,504.5C 431.161,501.213 431.661,497.88 432,494.5C 432.333,494.833 432.667,495.167 433,495.5C 433.667,493.5 434.333,491.5 435,489.5C 436.309,491.891 437.309,491.891 438,489.5C 439.243,491.833 440.909,492.5 443,491.5C 449.32,494.994 456.154,496.328 463.5,495.5C 463.259,498.999 464.092,499.332 466,496.5C 466.495,498.473 466.662,500.473 466.5,502.5 Z"/></g>
<g><path style="opacity:1" fill="#5fb6ed" d="M 665.5,467.5 C 667.017,467.511 668.184,468.177 669,469.5C 669.414,469.043 669.914,468.709 670.5,468.5C 672.921,471.876 675.587,475.043 678.5,478C 679.448,478.483 680.448,478.649 681.5,478.5C 681.351,479.552 681.517,480.552 682,481.5C 688.057,486.392 693.557,491.726 698.5,497.5C 698.5,498.167 698.5,498.833 698.5,499.5C 687.473,488.806 676.473,478.139 665.5,467.5 Z"/></g>
<g><path style="opacity:1" fill="#4bacfb" d="M 739.5,490.5 C 742.106,491.85 742.106,493.35 739.5,495C 741.442,497.034 743.275,499.2 745,501.5C 747.781,500.841 750.114,501.841 752,504.5C 754.167,507.787 754.667,511.12 753.5,514.5C 753.769,512.571 753.269,510.905 752,509.5C 751.5,510.5 751,511.5 750.5,512.5C 751.428,513.768 751.595,515.101 751,516.5C 750.646,514.193 749.646,513.859 748,515.5C 746.498,517.175 744.998,518.841 743.5,520.5C 743.55,519.152 743.217,517.652 742.5,516C 743.448,515.517 744.448,515.351 745.5,515.5C 745.762,514.022 745.429,512.689 744.5,511.5C 742.446,513.459 740.113,514.959 737.5,516C 738.15,517.609 737.65,519.109 736,520.5C 734.681,518.75 734.181,516.75 734.5,514.5C 731.603,514.319 728.77,514.652 726,515.5C 724.441,514.971 722.941,514.304 721.5,513.5C 720.476,514.853 719.143,515.52 717.5,515.5C 717.5,516.833 717.5,518.167 717.5,519.5C 716.167,519.5 714.833,519.5 713.5,519.5C 713.505,516.682 712.172,515.515 709.5,516C 704.272,522.729 698.272,528.562 691.5,533.5C 697.942,526.794 704.276,519.961 710.5,513C 705.921,508.926 701.921,504.426 698.5,499.5C 698.5,498.833 698.5,498.167 698.5,497.5C 699.525,497.103 699.692,496.437 699,495.5C 696.343,494.255 694.51,492.255 693.5,489.5C 694.989,488.02 696.655,487.187 698.5,487C 697.5,486 696.5,485 695.5,484C 695.833,483.833 696.167,483.667 696.5,483.5C 698.504,486.659 701.17,489.159 704.5,491C 710.895,492.05 717.061,491.55 723,489.5C 725.117,491.032 726.784,493.032 728,495.5C 731.575,491.196 732.742,491.696 731.5,497C 732.793,497.49 734.127,497.657 735.5,497.5C 735.34,499.199 735.506,500.866 736,502.5C 736.333,502.167 736.667,501.833 737,501.5C 738.883,502.653 739.716,504.319 739.5,506.5C 740.978,506.762 742.311,506.429 743.5,505.5C 741.973,503.807 740.64,501.973 739.5,500C 739.833,499.667 740.167,499.333 740.5,499C 738.884,498.385 737.551,497.385 736.5,496C 736.461,494.755 736.795,493.422 737.5,492C 737.836,490.97 738.503,490.47 739.5,490.5 Z"/></g>
<g><path style="opacity:1" fill="#59b3f0" d="M 727.5,475.5 C 734.829,481.996 741.662,488.996 748,496.5C 750.723,499.557 753.056,502.89 755,506.5C 756.623,513.157 755.123,518.824 750.5,523.5C 751.317,520.381 752.317,517.381 753.5,514.5C 754.667,511.12 754.167,507.787 752,504.5C 750.114,501.841 747.781,500.841 745,501.5C 743.275,499.2 741.442,497.034 739.5,495C 742.106,493.35 742.106,491.85 739.5,490.5C 734.747,486.083 730.747,481.083 727.5,475.5 Z"/></g>
<g><path style="opacity:1" fill="#3d99fa" d="M 593.5,504.5 C 594.165,510.477 594.498,516.477 594.5,522.5C 593.311,533.845 589.644,544.179 583.5,553.5C 585.378,548.076 587.378,542.743 589.5,537.5C 592.374,528.847 593.207,519.847 592,510.5C 591.646,512.807 590.646,513.141 589,511.5C 587.642,513.189 585.975,514.522 584,515.5C 582.135,513.708 579.969,512.374 577.5,511.5C 576.328,511.919 575.328,512.585 574.5,513.5C 572.5,510.833 570.5,510.833 568.5,513.5C 566.04,511.904 563.374,510.738 560.5,510C 559.929,508.795 559.262,507.628 558.5,506.5C 557.753,513.562 556.753,520.562 555.5,527.5C 554.167,529.167 552.833,530.833 551.5,532.5C 552.167,530.167 552.833,527.833 553.5,525.5C 553.5,525.167 553.5,524.833 553.5,524.5C 554.268,523.737 554.768,522.737 555,521.5C 555.499,517.514 555.666,513.514 555.5,509.5C 556.7,506.302 556.7,502.969 555.5,499.5C 555.434,497.819 555.934,496.152 557,494.5C 565.065,496.205 573.232,497.539 581.5,498.5C 583.236,497.575 585.07,496.908 587,496.5C 590.55,496.483 591.717,497.983 590.5,501C 591.636,502.145 592.636,503.312 593.5,504.5 Z"/></g>
<g><path style="opacity:1" fill="#338bfc" d="M 430.5,504.5 C 441.105,505.98 451.772,506.98 462.5,507.5C 462.088,509.973 463.088,511.306 465.5,511.5C 464.74,517.589 466.074,522.922 469.5,527.5C 471.821,533.478 475.155,538.811 479.5,543.5C 477.606,542.952 475.94,541.952 474.5,540.5C 473.757,541.908 472.923,543.241 472,544.5C 470.883,544.335 469.716,544.002 468.5,543.5C 467.269,542.349 467.269,541.183 468.5,540C 467.328,539.581 466.328,538.915 465.5,538C 467.37,534.939 468.037,531.773 467.5,528.5C 466.459,530.991 465.626,530.991 465,528.5C 463.956,529.623 463.29,530.956 463,532.5C 457.377,531.205 451.71,531.205 446,532.5C 444.416,532.012 443.249,531.012 442.5,529.5C 441.646,530.522 440.646,531.355 439.5,532C 439.493,533.583 439.826,535.249 440.5,537C 439.874,537.75 439.374,538.584 439,539.5C 437.333,537.167 435.667,534.833 434,532.5C 434.068,534.342 433.901,536.009 433.5,537.5C 430.165,526.816 429.165,515.816 430.5,504.5 Z"/></g>
<g><path style="opacity:1" fill="#060d28" d="M 430.5,490.5 C 430.5,490.833 430.5,491.167 430.5,491.5C 426.548,505.833 426.548,520.167 430.5,534.5C 429.59,532.981 428.757,531.315 428,529.5C 426.078,518.494 426.078,507.494 428,496.5C 428.24,494.148 429.073,492.148 430.5,490.5 Z"/></g>
<g><path style="opacity:1" fill="#4792dd" d="M 482.5,479.5 C 468.201,492.689 463.868,508.689 469.5,527.5C 466.074,522.922 464.74,517.589 465.5,511.5C 465.368,508.43 465.701,505.43 466.5,502.5C 469.135,495.262 472.135,488.595 475.5,482.5C 476.5,482.5 477.5,482.5 478.5,482.5C 478.5,481.5 478.5,480.5 478.5,479.5C 479.833,479.5 481.167,479.5 482.5,479.5 Z"/></g>
<g><path style="opacity:1" fill="#46a5fb" d="M 753.5,514.5 C 752.317,517.381 751.317,520.381 750.5,523.5C 743.952,533.387 736.285,542.387 727.5,550.5C 727.579,549.07 727.246,547.736 726.5,546.5C 729.995,546.501 730.328,545.001 727.5,542C 731.597,541.366 732.264,539.699 729.5,537C 731.367,536.289 732.867,536.789 734,538.5C 734.798,536.741 734.631,535.074 733.5,533.5C 732.914,533.709 732.414,534.043 732,534.5C 729.247,530.265 727.58,530.599 727,535.5C 725.907,533.651 724.574,531.984 723,530.5C 719.956,531.803 718.789,534.136 719.5,537.5C 714.125,537.828 708.792,537.495 703.5,536.5C 704.83,533.151 704.33,532.818 702,535.5C 701.751,534.376 701.251,533.376 700.5,532.5C 699.575,533.641 698.741,533.641 698,532.5C 697.033,535.2 695.199,537.034 692.5,538C 692.833,538.333 693.167,538.667 693.5,539C 689.443,537.359 686.443,538.526 684.5,542.5C 678.063,547.865 671.73,553.365 665.5,559C 664.552,559.483 663.552,559.649 662.5,559.5C 666.167,556.167 669.833,552.833 673.5,549.5C 679.797,544.538 685.797,539.205 691.5,533.5C 698.272,528.562 704.272,522.729 709.5,516C 712.172,515.515 713.505,516.682 713.5,519.5C 714.833,519.5 716.167,519.5 717.5,519.5C 717.5,518.167 717.5,516.833 717.5,515.5C 719.143,515.52 720.476,514.853 721.5,513.5C 722.941,514.304 724.441,514.971 726,515.5C 728.77,514.652 731.603,514.319 734.5,514.5C 734.181,516.75 734.681,518.75 736,520.5C 737.65,519.109 738.15,517.609 737.5,516C 740.113,514.959 742.446,513.459 744.5,511.5C 745.429,512.689 745.762,514.022 745.5,515.5C 744.448,515.351 743.448,515.517 742.5,516C 743.217,517.652 743.55,519.152 743.5,520.5C 744.998,518.841 746.498,517.175 748,515.5C 749.646,513.859 750.646,514.193 751,516.5C 751.595,515.101 751.428,513.768 750.5,512.5C 751,511.5 751.5,510.5 752,509.5C 753.269,510.905 753.769,512.571 753.5,514.5 Z"/></g>
<g><path style="opacity:1" fill="#3f9efc" d="M 315.5,518.5 C 316.922,519.925 318.589,520.925 320.5,521.5C 321.167,521.5 321.5,521.833 321.5,522.5C 322.63,524.315 323.296,526.315 323.5,528.5C 327.389,529.443 330.056,531.777 331.5,535.5C 331.291,536.922 330.791,538.255 330,539.5C 327.798,538.087 325.632,536.587 323.5,535C 324.833,534.333 324.833,533.667 323.5,533C 317.163,531.696 310.997,530.529 305,529.5C 300.017,532.599 294.684,533.266 289,531.5C 287.775,531.862 286.609,532.362 285.5,533C 286.696,533.654 286.696,534.154 285.5,534.5C 284.808,533.975 284.308,533.308 284,532.5C 283.51,533.793 283.343,535.127 283.5,536.5C 282.167,535.833 281.167,534.833 280.5,533.5C 278.356,529.889 276.19,526.222 274,522.5C 273.619,518.723 274.286,518.723 276,522.5C 276.333,521.833 276.667,521.167 277,520.5C 278.65,521.891 279.15,523.391 278.5,525C 280.167,526 281.833,527 283.5,528C 282.044,528.423 281.544,529.256 282,530.5C 283.158,530.002 283.991,529.169 284.5,528C 282.988,525.232 281.321,522.565 279.5,520C 280.641,519.259 280.641,518.425 279.5,517.5C 280.837,517.26 282.503,516.76 284.5,516C 283.359,515.259 283.359,514.425 284.5,513.5C 283.758,511.65 282.758,510.984 281.5,511.5C 281.833,510.5 282.5,509.833 283.5,509.5C 284.795,511.328 285.795,513.328 286.5,515.5C 288.111,514.68 288.778,513.346 288.5,511.5C 294.045,511.678 299.379,511.178 304.5,510C 304.833,510.333 305.167,510.667 305.5,511C 303.833,511.333 302.167,511.667 300.5,512C 303.008,512.654 305.174,513.821 307,515.5C 308.183,514.269 309.349,514.269 310.5,515.5C 308.842,519.749 309.676,520.416 313,517.5C 313.342,519.619 314.175,519.953 315.5,518.5 Z"/></g>
<g><path style="opacity:1" fill="#031536" d="M 554.5,505.5 C 555.434,506.568 555.768,507.901 555.5,509.5C 555.666,513.514 555.499,517.514 555,521.5C 554.768,522.737 554.268,523.737 553.5,524.5C 554.32,518.203 554.653,511.869 554.5,505.5 Z"/></g>
<g><path style="opacity:1" fill="#348ffd" d="M 589.5,537.5 C 589.769,535.571 589.269,533.905 588,532.5C 586.213,534.958 583.879,536.624 581,537.5C 578.077,536.958 575.077,535.958 572,534.5C 570.564,534.559 569.231,534.892 568,535.5C 567.59,532.286 566.09,531.62 563.5,533.5C 561.5,533 559.5,532.5 557.5,532C 558.167,531.667 558.833,531.333 559.5,531C 558.167,530.333 558.167,529.667 559.5,529C 558,526.833 556.833,527 556,529.5C 555.536,528.906 555.369,528.239 555.5,527.5C 556.753,520.562 557.753,513.562 558.5,506.5C 559.262,507.628 559.929,508.795 560.5,510C 563.374,510.738 566.04,511.904 568.5,513.5C 570.5,510.833 572.5,510.833 574.5,513.5C 575.328,512.585 576.328,511.919 577.5,511.5C 579.969,512.374 582.135,513.708 584,515.5C 585.975,514.522 587.642,513.189 589,511.5C 590.646,513.141 591.646,512.807 592,510.5C 593.207,519.847 592.374,528.847 589.5,537.5 Z"/></g>
<g><path style="opacity:1" fill="#3b99fb" d="M 331.5,535.5 C 337.497,539.867 342.83,544.867 347.5,550.5C 347.565,550.938 347.399,551.272 347,551.5C 345.915,550.707 344.748,550.04 343.5,549.5C 339.331,551.488 336.831,550.154 336,545.5C 335.767,547.78 334.934,549.78 333.5,551.5C 329.463,547.599 324.796,546.599 319.5,548.5C 319.557,552.133 318.557,552.3 316.5,549C 312.172,546.343 308.505,547.01 305.5,551C 306.607,555.093 308.273,559.26 310.5,563.5C 311.364,565.197 312.697,566.363 314.5,567C 313.944,567.383 313.611,567.883 313.5,568.5C 302.407,558.744 292.407,548.077 283.5,536.5C 283.343,535.127 283.51,533.793 284,532.5C 284.308,533.308 284.808,533.975 285.5,534.5C 286.696,534.154 286.696,533.654 285.5,533C 286.609,532.362 287.775,531.862 289,531.5C 294.684,533.266 300.017,532.599 305,529.5C 310.997,530.529 317.163,531.696 323.5,533C 324.833,533.667 324.833,534.333 323.5,535C 325.632,536.587 327.798,538.087 330,539.5C 330.791,538.255 331.291,536.922 331.5,535.5 Z"/></g>
<g><path style="opacity:1" fill="#409efb" d="M 727.5,550.5 C 723.167,555.5 718.5,560.167 713.5,564.5C 713.511,562.983 714.177,561.816 715.5,561C 715.943,559.482 715.276,558.315 713.5,557.5C 714.687,556.481 715.687,555.314 716.5,554C 717.549,553.508 718.549,553.674 719.5,554.5C 722.079,553.112 722.079,551.612 719.5,550C 721.513,548.209 721.513,546.875 719.5,546C 719.957,545.586 720.291,545.086 720.5,544.5C 715.869,543.338 711.202,543.172 706.5,544C 705.151,544.772 704.318,545.939 704,547.5C 699.46,546.783 695.127,545.449 691,543.5C 690.167,543.667 689.333,543.833 688.5,544C 688.868,545.473 688.368,546.973 687,548.5C 686.667,547.833 686.333,547.167 686,546.5C 685.105,549.375 684.272,549.708 683.5,547.5C 685.184,545.923 685.518,544.257 684.5,542.5C 686.443,538.526 689.443,537.359 693.5,539C 693.167,538.667 692.833,538.333 692.5,538C 695.199,537.034 697.033,535.2 698,532.5C 698.741,533.641 699.575,533.641 700.5,532.5C 701.251,533.376 701.751,534.376 702,535.5C 704.33,532.818 704.83,533.151 703.5,536.5C 708.792,537.495 714.125,537.828 719.5,537.5C 718.789,534.136 719.956,531.803 723,530.5C 724.574,531.984 725.907,533.651 727,535.5C 727.58,530.599 729.247,530.265 732,534.5C 732.414,534.043 732.914,533.709 733.5,533.5C 734.631,535.074 734.798,536.741 734,538.5C 732.867,536.789 731.367,536.289 729.5,537C 732.264,539.699 731.597,541.366 727.5,542C 730.328,545.001 729.995,546.501 726.5,546.5C 727.246,547.736 727.579,549.07 727.5,550.5 Z"/></g>
<g><path style="opacity:1" fill="#2e80fc" d="M 479.5,543.5 C 482.358,546.086 485.358,548.42 488.5,550.5C 488.937,552.074 489.937,553.241 491.5,554C 500.714,557.507 510.047,558.341 519.5,556.5C 522.271,556.579 524.937,556.079 527.5,555C 533.212,551.813 538.879,548.647 544.5,545.5C 545.458,545.047 546.292,544.381 547,543.5C 548.079,545.394 549.413,545.727 551,544.5C 551.333,545.833 551.667,547.167 552,548.5C 554.582,546.094 557.248,546.094 560,548.5C 561.092,547.704 562.259,547.037 563.5,546.5C 566.337,547.906 569.337,548.739 572.5,549C 573.333,549.833 574.167,550.667 575,551.5C 576.873,548.988 578.707,549.154 580.5,552C 579.62,553.356 579.286,554.856 579.5,556.5C 578.178,556.67 577.011,556.337 576,555.5C 575.626,556.416 575.126,557.25 574.5,558C 575.938,558.219 577.271,558.719 578.5,559.5C 577.873,560.417 577.539,561.417 577.5,562.5C 574.145,567.855 569.812,572.188 564.5,575.5C 564.5,574.5 564.5,573.5 564.5,572.5C 565.5,572.5 566.5,572.5 567.5,572.5C 567.703,570.61 567.037,569.11 565.5,568C 566.191,566.933 566.691,565.766 567,564.5C 571.444,565.255 571.611,564.255 567.5,561.5C 565.267,563.322 562.933,564.988 560.5,566.5C 530.51,566.033 500.51,565.033 470.5,563.5C 467.5,563.667 464.5,563.833 461.5,564C 461,564.5 460.5,565 460,565.5C 459.735,563.837 460.235,562.337 461.5,561C 458.54,557.856 456.04,558.356 454,562.5C 451.985,560.479 449.652,558.812 447,557.5C 446.5,557.833 446,558.167 445.5,558.5C 446.154,560.115 446.654,561.782 447,563.5C 448.802,564.789 449.969,566.456 450.5,568.5C 448.871,567.375 447.371,566.041 446,564.5C 443.642,561.778 441.809,558.778 440.5,555.5C 438.176,549.534 435.843,543.534 433.5,537.5C 433.901,536.009 434.068,534.342 434,532.5C 435.667,534.833 437.333,537.167 439,539.5C 439.374,538.584 439.874,537.75 440.5,537C 439.826,535.249 439.493,533.583 439.5,532C 440.646,531.355 441.646,530.522 442.5,529.5C 443.249,531.012 444.416,532.012 446,532.5C 451.71,531.205 457.377,531.205 463,532.5C 463.29,530.956 463.956,529.623 465,528.5C 465.626,530.991 466.459,530.991 467.5,528.5C 468.037,531.773 467.37,534.939 465.5,538C 466.328,538.915 467.328,539.581 468.5,540C 467.269,541.183 467.269,542.349 468.5,543.5C 469.716,544.002 470.883,544.335 472,544.5C 472.923,543.241 473.757,541.908 474.5,540.5C 475.94,541.952 477.606,542.952 479.5,543.5 Z"/></g>
<g><path style="opacity:1" fill="#3186fb" d="M 555.5,527.5 C 555.369,528.239 555.536,528.906 556,529.5C 556.833,527 558,526.833 559.5,529C 558.167,529.667 558.167,530.333 559.5,531C 558.833,531.333 558.167,531.667 557.5,532C 559.5,532.5 561.5,533 563.5,533.5C 566.09,531.62 567.59,532.286 568,535.5C 569.231,534.892 570.564,534.559 572,534.5C 575.077,535.958 578.077,536.958 581,537.5C 583.879,536.624 586.213,534.958 588,532.5C 589.269,533.905 589.769,535.571 589.5,537.5C 587.378,542.743 585.378,548.076 583.5,553.5C 583.167,554.833 582.833,556.167 582.5,557.5C 581.061,559.36 579.395,561.027 577.5,562.5C 577.539,561.417 577.873,560.417 578.5,559.5C 577.271,558.719 575.938,558.219 574.5,558C 575.126,557.25 575.626,556.416 576,555.5C 577.011,556.337 578.178,556.67 579.5,556.5C 579.286,554.856 579.62,553.356 580.5,552C 578.707,549.154 576.873,548.988 575,551.5C 574.167,550.667 573.333,549.833 572.5,549C 569.337,548.739 566.337,547.906 563.5,546.5C 562.259,547.037 561.092,547.704 560,548.5C 557.248,546.094 554.582,546.094 552,548.5C 551.667,547.167 551.333,545.833 551,544.5C 549.413,545.727 548.079,545.394 547,543.5C 546.292,544.381 545.458,545.047 544.5,545.5C 547.088,541.326 549.421,536.993 551.5,532.5C 552.833,530.833 554.167,529.167 555.5,527.5 Z"/></g>
<g><path style="opacity:1" fill="#090b1b" d="M 553.5,525.5 C 552.833,527.833 552.167,530.167 551.5,532.5C 548.687,536.098 545.853,539.765 543,543.5C 540.6,545.415 538.1,547.081 535.5,548.5C 535.343,547.127 535.51,545.793 536,544.5C 536.333,545.167 536.667,545.833 537,546.5C 538.009,544.975 538.509,543.308 538.5,541.5C 540.5,540.833 542.5,540.167 544.5,539.5C 544.36,537.876 545.027,536.71 546.5,536C 546.043,535.586 545.709,535.086 545.5,534.5C 546.274,533.289 547.107,533.289 548,534.5C 548.855,530.768 550.689,527.768 553.5,525.5 Z"/></g>
<g><path style="opacity:1" fill="#4183dc" d="M 551.5,532.5 C 549.421,536.993 547.088,541.326 544.5,545.5C 538.879,548.647 533.212,551.813 527.5,555C 524.937,556.079 522.271,556.579 519.5,556.5C 519.5,556.167 519.5,555.833 519.5,555.5C 525.431,554.309 530.764,551.976 535.5,548.5C 538.1,547.081 540.6,545.415 543,543.5C 545.853,539.765 548.687,536.098 551.5,532.5 Z"/></g>
<g><path style="opacity:1" fill="#3c99fa" d="M 684.5,542.5 C 685.518,544.257 685.184,545.923 683.5,547.5C 684.272,549.708 685.105,549.375 686,546.5C 686.333,547.167 686.667,547.833 687,548.5C 688.368,546.973 688.868,545.473 688.5,544C 689.333,543.833 690.167,543.667 691,543.5C 695.127,545.449 699.46,546.783 704,547.5C 704.318,545.939 705.151,544.772 706.5,544C 711.202,543.172 715.869,543.338 720.5,544.5C 720.291,545.086 719.957,545.586 719.5,546C 721.513,546.875 721.513,548.209 719.5,550C 722.079,551.612 722.079,553.112 719.5,554.5C 718.549,553.674 717.549,553.508 716.5,554C 715.687,555.314 714.687,556.481 713.5,557.5C 715.276,558.315 715.943,559.482 715.5,561C 714.177,561.816 713.511,562.983 713.5,564.5C 711.431,567.573 708.764,569.906 705.5,571.5C 704.107,569.716 703.607,567.716 704,565.5C 705.749,564.701 707.082,565.368 708,567.5C 709.067,566.057 710.234,564.724 711.5,563.5C 710.649,560.388 709.483,560.054 708,562.5C 707.667,561.833 707.333,561.167 707,560.5C 705.951,561.517 704.784,561.684 703.5,561C 698.193,556.662 692.193,554.996 685.5,556C 689.062,554.134 688.729,552.301 684.5,550.5C 683.749,551.376 683.249,552.376 683,553.5C 681.475,550.913 679.308,550.08 676.5,551C 676.957,551.414 677.291,551.914 677.5,552.5C 674.423,553.774 671.923,555.774 670,558.5C 669.667,558.167 669.333,557.833 669,557.5C 666.842,559.333 664.676,561.166 662.5,563C 657.327,565.42 652.66,568.587 648.5,572.5C 644.801,575.35 640.801,577.683 636.5,579.5C 644.142,573.531 651.809,567.531 659.5,561.5C 660.5,560.833 661.5,560.167 662.5,559.5C 663.552,559.649 664.552,559.483 665.5,559C 671.73,553.365 678.063,547.865 684.5,542.5 Z"/></g>
<g><path style="opacity:1" fill="#071231" d="M 430.5,535.5 C 432.478,540.129 434.478,544.796 436.5,549.5C 435.206,548.71 434.039,547.71 433,546.5C 431.85,542.888 431.017,539.222 430.5,535.5 Z"/></g>
<g><path style="opacity:1" fill="#3893fb" d="M 347.5,550.5 C 350.851,552.859 354.185,555.192 357.5,557.5C 363.056,560.781 368.056,564.781 372.5,569.5C 368.469,567.064 364.302,564.731 360,562.5C 358.601,563.227 357.101,563.727 355.5,564C 354.663,565.011 354.33,566.178 354.5,567.5C 353.5,567.5 352.5,567.5 351.5,567.5C 351.5,566.167 351.5,564.833 351.5,563.5C 345.605,562.946 339.938,563.612 334.5,565.5C 332.689,564.264 330.856,564.264 329,565.5C 325.127,562.351 321.127,562.017 317,564.5C 316.282,563.549 315.449,563.383 314.5,564C 315.949,565.117 317.616,565.784 319.5,566C 317.956,566.29 316.623,566.956 315.5,568C 319.078,571.072 322.078,574.572 324.5,578.5C 320.808,575.138 317.141,571.805 313.5,568.5C 313.611,567.883 313.944,567.383 314.5,567C 312.697,566.363 311.364,565.197 310.5,563.5C 308.273,559.26 306.607,555.093 305.5,551C 308.505,547.01 312.172,546.343 316.5,549C 318.557,552.3 319.557,552.133 319.5,548.5C 324.796,546.599 329.463,547.599 333.5,551.5C 334.934,549.78 335.767,547.78 336,545.5C 336.831,550.154 339.331,551.488 343.5,549.5C 344.748,550.04 345.915,550.707 347,551.5C 347.399,551.272 347.565,550.938 347.5,550.5 Z"/></g>
<g><path style="opacity:1" fill="#090d1f" d="M 594.5,522.5 C 594.833,522.5 595.167,522.5 595.5,522.5C 595.318,524.591 595.652,526.591 596.5,528.5C 596.154,529.696 595.654,529.696 595,528.5C 593.058,535.489 591.225,542.489 589.5,549.5C 589.709,550.086 590.043,550.586 590.5,551C 587.126,552.524 584.459,554.691 582.5,557.5C 582.833,556.167 583.167,554.833 583.5,553.5C 589.644,544.179 593.311,533.845 594.5,522.5 Z"/></g>
<g><path style="opacity:1" fill="#4f9de4" d="M 321.5,522.5 C 333.527,534.194 345.527,545.861 357.5,557.5C 354.185,555.192 350.851,552.859 347.5,550.5C 342.83,544.867 337.497,539.867 331.5,535.5C 330.056,531.777 327.389,529.443 323.5,528.5C 323.296,526.315 322.63,524.315 321.5,522.5 Z"/></g>
<g><path style="opacity:1" fill="#081334" d="M 496.5,553.5 C 504.141,554.407 511.807,555.073 519.5,555.5C 519.5,555.833 519.5,556.167 519.5,556.5C 514.156,556.666 508.823,556.499 503.5,556C 500.896,555.61 498.562,554.776 496.5,553.5 Z"/></g>
<g><path style="opacity:1" fill="#3792fb" d="M 705.5,571.5 C 700.729,577.61 695.062,582.61 688.5,586.5C 688.229,584.62 688.896,583.287 690.5,582.5C 690.435,582.938 690.601,583.272 691,583.5C 692.167,582.333 693.333,581.167 694.5,580C 694.167,579.667 693.833,579.333 693.5,579C 697.231,577.371 698.731,574.538 698,570.5C 696.16,571.833 695.66,571.666 696.5,570C 691.711,569.56 687.378,568.06 683.5,565.5C 682.328,565.919 681.328,566.585 680.5,567.5C 679.614,566.675 679.281,565.675 679.5,564.5C 676.881,564.768 674.381,564.435 672,563.5C 671.59,566.714 670.09,567.38 667.5,565.5C 666.328,565.919 665.328,566.585 664.5,567.5C 663.808,566.975 663.308,566.308 663,565.5C 661.731,566.905 661.231,568.571 661.5,570.5C 659.517,570.157 658.183,570.824 657.5,572.5C 654.281,572.906 651.281,572.906 648.5,572.5C 652.66,568.587 657.327,565.42 662.5,563C 664.676,561.166 666.842,559.333 669,557.5C 669.333,557.833 669.667,558.167 670,558.5C 671.923,555.774 674.423,553.774 677.5,552.5C 677.291,551.914 676.957,551.414 676.5,551C 679.308,550.08 681.475,550.913 683,553.5C 683.249,552.376 683.749,551.376 684.5,550.5C 688.729,552.301 689.062,554.134 685.5,556C 692.193,554.996 698.193,556.662 703.5,561C 704.784,561.684 705.951,561.517 707,560.5C 707.333,561.167 707.667,561.833 708,562.5C 709.483,560.054 710.649,560.388 711.5,563.5C 710.234,564.724 709.067,566.057 708,567.5C 707.082,565.368 705.749,564.701 704,565.5C 703.607,567.716 704.107,569.716 705.5,571.5 Z"/></g>
<g><path style="opacity:1" fill="#4689e2" d="M 488.5,550.5 C 490.954,552.06 493.62,553.06 496.5,553.5C 498.562,554.776 500.896,555.61 503.5,556C 508.823,556.499 514.156,556.666 519.5,556.5C 510.047,558.341 500.714,557.507 491.5,554C 489.937,553.241 488.937,552.074 488.5,550.5 Z"/></g>
<g><path style="opacity:1" fill="#090f24" d="M 673.5,549.5 C 669.833,552.833 666.167,556.167 662.5,559.5C 661.5,560.167 660.5,560.833 659.5,561.5C 660.747,557.75 663.247,555.084 667,553.5C 667.483,552.552 667.649,551.552 667.5,550.5C 669.565,550.483 671.565,550.15 673.5,549.5 Z"/></g>
<g><path style="opacity:1" fill="#338dfd" d="M 690.5,582.5 C 690.577,581.25 691.244,580.417 692.5,580C 689.833,579.333 689.833,578.667 692.5,578C 690.044,576.381 687.544,575.881 685,576.5C 680.601,575.852 676.434,574.519 672.5,572.5C 671.261,574.007 671.595,575.174 673.5,576C 672.975,576.692 672.308,577.192 671.5,577.5C 670.253,575.956 668.92,574.456 667.5,573C 665.559,572.257 663.726,572.424 662,573.5C 660.774,571.452 659.274,571.119 657.5,572.5C 658.183,570.824 659.517,570.157 661.5,570.5C 661.231,568.571 661.731,566.905 663,565.5C 663.308,566.308 663.808,566.975 664.5,567.5C 665.328,566.585 666.328,565.919 667.5,565.5C 670.09,567.38 671.59,566.714 672,563.5C 674.381,564.435 676.881,564.768 679.5,564.5C 679.281,565.675 679.614,566.675 680.5,567.5C 681.328,566.585 682.328,565.919 683.5,565.5C 687.378,568.06 691.711,569.56 696.5,570C 695.66,571.666 696.16,571.833 698,570.5C 698.731,574.538 697.231,577.371 693.5,579C 693.833,579.333 694.167,579.667 694.5,580C 693.333,581.167 692.167,582.333 691,583.5C 690.601,583.272 690.435,582.938 690.5,582.5 Z"/></g>
<g><path style="opacity:1" fill="#2c79fc" d="M 564.5,575.5 C 562.883,576.038 561.216,576.371 559.5,576.5C 559.369,575.761 559.536,575.094 560,574.5C 560.654,575.696 561.154,575.696 561.5,574.5C 558.914,573.52 556.247,573.187 553.5,573.5C 553.377,577.821 551.877,578.488 549,575.5C 546.045,576.374 543.045,577.041 540,577.5C 535.603,576.375 531.269,576.375 527,577.5C 525.562,576.282 523.895,575.615 522,575.5C 518.137,575.657 514.304,575.657 510.5,575.5C 509.522,575.977 508.689,576.643 508,577.5C 504.422,575.234 500.588,574.9 496.5,576.5C 495.614,577.325 495.281,578.325 495.5,579.5C 490.13,579.842 484.797,580.509 479.5,581.5C 477.176,581.271 475.009,580.604 473,579.5C 471.699,580.098 470.865,581.098 470.5,582.5C 472.672,584.172 474.672,585.839 476.5,587.5C 466.143,583.476 457.476,577.142 450.5,568.5C 449.969,566.456 448.802,564.789 447,563.5C 446.654,561.782 446.154,560.115 445.5,558.5C 446,558.167 446.5,557.833 447,557.5C 449.652,558.812 451.985,560.479 454,562.5C 456.04,558.356 458.54,557.856 461.5,561C 460.235,562.337 459.735,563.837 460,565.5C 460.5,565 461,564.5 461.5,564C 464.5,563.833 467.5,563.667 470.5,563.5C 500.51,565.033 530.51,566.033 560.5,566.5C 562.933,564.988 565.267,563.322 567.5,561.5C 571.611,564.255 571.444,565.255 567,564.5C 566.691,565.766 566.191,566.933 565.5,568C 567.037,569.11 567.703,570.61 567.5,572.5C 566.5,572.5 565.5,572.5 564.5,572.5C 564.5,573.5 564.5,574.5 564.5,575.5 Z"/></g>
<g><path style="opacity:1" fill="#3389f9" d="M 372.5,569.5 C 372.5,570.5 372.5,571.5 372.5,572.5C 371.962,574.117 371.629,575.784 371.5,577.5C 370.022,577.762 368.689,577.429 367.5,576.5C 368.744,574.867 368.244,573.867 366,573.5C 363.348,575.708 360.515,576.375 357.5,575.5C 354.069,576.191 350.736,577.191 347.5,578.5C 345.742,576.262 343.408,575.262 340.5,575.5C 340.719,576.675 340.386,577.675 339.5,578.5C 337.386,577.966 335.552,576.966 334,575.5C 332.095,576.158 330.595,577.325 329.5,579C 332.835,583.054 336.501,587.054 340.5,591C 342.78,591.233 344.78,592.066 346.5,593.5C 347.183,593.137 347.85,592.804 348.5,592.5C 347.879,594.998 348.545,597.332 350.5,599.5C 341.249,593.252 332.582,586.252 324.5,578.5C 322.078,574.572 319.078,571.072 315.5,568C 316.623,566.956 317.956,566.29 319.5,566C 317.616,565.784 315.949,565.117 314.5,564C 315.449,563.383 316.282,563.549 317,564.5C 321.127,562.017 325.127,562.351 329,565.5C 330.856,564.264 332.689,564.264 334.5,565.5C 339.938,563.612 345.605,562.946 351.5,563.5C 351.5,564.833 351.5,566.167 351.5,567.5C 352.5,567.5 353.5,567.5 354.5,567.5C 354.33,566.178 354.663,565.011 355.5,564C 357.101,563.727 358.601,563.227 360,562.5C 364.302,564.731 368.469,567.064 372.5,569.5 Z"/></g>
<g><path style="opacity:1" fill="#2c73fb" d="M 559.5,576.5 C 551.281,583.448 541.947,588.615 531.5,592C 517.181,594.356 503.014,593.856 489,590.5C 488.235,590.57 487.735,590.903 487.5,591.5C 485.784,591.371 484.117,591.038 482.5,590.5C 480.426,589.486 478.426,588.486 476.5,587.5C 474.672,585.839 472.672,584.172 470.5,582.5C 470.865,581.098 471.699,580.098 473,579.5C 475.009,580.604 477.176,581.271 479.5,581.5C 484.797,580.509 490.13,579.842 495.5,579.5C 495.281,578.325 495.614,577.325 496.5,576.5C 500.588,574.9 504.422,575.234 508,577.5C 508.689,576.643 509.522,575.977 510.5,575.5C 514.304,575.657 518.137,575.657 522,575.5C 523.895,575.615 525.562,576.282 527,577.5C 531.269,576.375 535.603,576.375 540,577.5C 543.045,577.041 546.045,576.374 549,575.5C 551.877,578.488 553.377,577.821 553.5,573.5C 556.247,573.187 558.914,573.52 561.5,574.5C 561.154,575.696 560.654,575.696 560,574.5C 559.536,575.094 559.369,575.761 559.5,576.5 Z"/></g>
<g><path style="opacity:1" fill="#3a72d8" d="M 564.5,575.5 C 555.771,583.204 545.771,588.87 534.5,592.5C 518.592,596.773 502.925,596.439 487.5,591.5C 487.735,590.903 488.235,590.57 489,590.5C 503.014,593.856 517.181,594.356 531.5,592C 541.947,588.615 551.281,583.448 559.5,576.5C 561.216,576.371 562.883,576.038 564.5,575.5 Z"/></g>
<g><path style="opacity:1" fill="#3081fa" d="M 690.5,582.5 C 688.896,583.287 688.229,584.62 688.5,586.5C 687.167,588.167 685.833,589.833 684.5,591.5C 676.518,597.142 668.518,602.808 660.5,608.5C 660.414,607.504 660.748,606.671 661.5,606C 664.768,605.064 667.101,603.064 668.5,600C 668.167,599.667 667.833,599.333 667.5,599C 668.549,598.508 669.549,598.674 670.5,599.5C 671.711,598.726 671.711,597.893 670.5,597C 672.256,596.798 673.922,596.298 675.5,595.5C 674.332,594.094 674.665,592.928 676.5,592C 676.5,590.667 676.5,589.333 676.5,588C 674.82,587.966 673.32,587.799 672,587.5C 670.701,588.98 669.034,589.646 667,589.5C 656.096,587.518 645.43,587.184 635,588.5C 634.632,587.09 633.799,586.09 632.5,585.5C 630.674,585.92 628.674,585.92 626.5,585.5C 629.494,583 632.827,581 636.5,579.5C 640.801,577.683 644.801,575.35 648.5,572.5C 651.281,572.906 654.281,572.906 657.5,572.5C 659.274,571.119 660.774,571.452 662,573.5C 663.726,572.424 665.559,572.257 667.5,573C 668.92,574.456 670.253,575.956 671.5,577.5C 672.308,577.192 672.975,576.692 673.5,576C 671.595,575.174 671.261,574.007 672.5,572.5C 676.434,574.519 680.601,575.852 685,576.5C 687.544,575.881 690.044,576.381 692.5,578C 689.833,578.667 689.833,579.333 692.5,580C 691.244,580.417 690.577,581.25 690.5,582.5 Z"/></g>
<g><path style="opacity:1" fill="#2e81fc" d="M 372.5,572.5 C 374.308,572.491 375.975,572.991 377.5,574C 382.831,578.838 388.831,582.672 395.5,585.5C 395.833,585.5 396.167,585.5 396.5,585.5C 396.414,586.496 396.748,587.329 397.5,588C 399.727,588.941 401.727,590.108 403.5,591.5C 402.761,591.369 402.094,591.536 401.5,592C 402.696,592.654 402.696,593.154 401.5,593.5C 398.935,592.537 396.602,591.204 394.5,589.5C 393.808,590.025 393.308,590.692 393,591.5C 392.029,590.802 390.863,590.802 389.5,591.5C 387.833,590.5 386.167,589.5 384.5,588.5C 383.808,589.025 383.308,589.692 383,590.5C 379.323,586.907 375.323,586.573 371,589.5C 364.924,588.524 358.758,588.19 352.5,588.5C 352.5,589.833 352.5,591.167 352.5,592.5C 351.167,592.5 349.833,592.5 348.5,592.5C 347.85,592.804 347.183,593.137 346.5,593.5C 344.78,592.066 342.78,591.233 340.5,591C 336.501,587.054 332.835,583.054 329.5,579C 330.595,577.325 332.095,576.158 334,575.5C 335.552,576.966 337.386,577.966 339.5,578.5C 340.386,577.675 340.719,576.675 340.5,575.5C 343.408,575.262 345.742,576.262 347.5,578.5C 350.736,577.191 354.069,576.191 357.5,575.5C 360.515,576.375 363.348,575.708 366,573.5C 368.244,573.867 368.744,574.867 367.5,576.5C 368.689,577.429 370.022,577.762 371.5,577.5C 371.629,575.784 371.962,574.117 372.5,572.5 Z"/></g>
<g><path style="opacity:1" fill="#4287dc" d="M 372.5,569.5 C 380.35,574.59 388.016,579.923 395.5,585.5C 388.831,582.672 382.831,578.838 377.5,574C 375.975,572.991 374.308,572.491 372.5,572.5C 372.5,571.5 372.5,570.5 372.5,569.5 Z"/></g>
<g><path style="opacity:1" fill="#3f80dc" d="M 396.5,585.5 C 403.235,589.528 409.902,593.528 416.5,597.5C 411.753,596.258 407.42,594.258 403.5,591.5C 401.727,590.108 399.727,588.941 397.5,588C 396.748,587.329 396.414,586.496 396.5,585.5 Z"/></g>
<g><path style="opacity:1" fill="#2c78fb" d="M 626.5,585.5 C 628.674,585.92 630.674,585.92 632.5,585.5C 633.799,586.09 634.632,587.09 635,588.5C 645.43,587.184 656.096,587.518 667,589.5C 669.034,589.646 670.701,588.98 672,587.5C 673.32,587.799 674.82,587.966 676.5,588C 676.5,589.333 676.5,590.667 676.5,592C 674.665,592.928 674.332,594.094 675.5,595.5C 673.922,596.298 672.256,596.798 670.5,597C 671.711,597.893 671.711,598.726 670.5,599.5C 669.549,598.674 668.549,598.508 667.5,599C 667.833,599.333 668.167,599.667 668.5,600C 667.101,603.064 664.768,605.064 661.5,606C 660.748,606.671 660.414,607.504 660.5,608.5C 655.709,612.068 650.709,615.402 645.5,618.5C 645.229,616.62 645.896,615.287 647.5,614.5C 647.897,615.525 648.563,615.692 649.5,615C 650.191,613.933 650.691,612.766 651,611.5C 652.871,612.668 654.371,612.168 655.5,610C 653.018,608.539 653.018,607.039 655.5,605.5C 655.709,604.078 656.209,602.745 657,601.5C 658.016,602.634 658.683,602.301 659,600.5C 659.419,601.672 660.085,602.672 661,603.5C 662,602.167 663,602.167 664,603.5C 664.617,602.551 664.451,601.718 663.5,601C 665.159,599.159 667.159,597.992 669.5,597.5C 669.649,596.448 669.483,595.448 669,594.5C 666.667,595.833 664.333,597.167 662,598.5C 661.667,597.5 661.333,596.5 661,595.5C 659.989,596.337 658.822,596.67 657.5,596.5C 657.738,600.099 656.738,600.433 654.5,597.5C 655.167,596.5 655.833,595.5 656.5,594.5C 649.696,593.318 642.863,592.318 636,591.5C 634.635,591.844 633.468,592.511 632.5,593.5C 629.897,592.438 627.23,592.272 624.5,593C 621.803,595.708 618.637,597.541 615,598.5C 614.641,595.456 613.974,595.122 613,597.5C 612.333,596.167 611.667,596.167 611,597.5C 611.648,601.829 610.148,602.496 606.5,599.5C 605.583,600.127 604.583,600.461 603.5,600.5C 609.481,596.506 615.815,593.006 622.5,590C 624.192,588.693 625.525,587.193 626.5,585.5 Z"/></g>
<g><path style="opacity:1" fill="#2c79fc" d="M 403.5,591.5 C 407.42,594.258 411.753,596.258 416.5,597.5C 416.833,597.5 417.167,597.5 417.5,597.5C 417.5,598.167 417.5,598.833 417.5,599.5C 415.956,599.703 414.622,600.37 413.5,601.5C 412.808,600.975 412.308,600.308 412,599.5C 411.804,601.286 410.971,602.619 409.5,603.5C 410.694,601.56 410.694,599.727 409.5,598C 407.953,597.667 406.62,598.167 405.5,599.5C 403.807,597.973 401.973,596.64 400,595.5C 399.5,596 399,596.5 398.5,597C 392.07,597.799 385.737,597.299 379.5,595.5C 377.616,595.716 375.949,596.383 374.5,597.5C 372.629,596.233 370.796,596.233 369,597.5C 368.311,596.643 367.478,595.977 366.5,595.5C 364.026,600.322 361.026,600.655 357.5,596.5C 355.616,597.693 355.116,599.359 356,601.5C 358.378,603.742 360.544,606.075 362.5,608.5C 357.929,606.262 353.929,603.262 350.5,599.5C 348.545,597.332 347.879,594.998 348.5,592.5C 349.833,592.5 351.167,592.5 352.5,592.5C 352.5,591.167 352.5,589.833 352.5,588.5C 358.758,588.19 364.924,588.524 371,589.5C 375.323,586.573 379.323,586.907 383,590.5C 383.308,589.692 383.808,589.025 384.5,588.5C 386.167,589.5 387.833,590.5 389.5,591.5C 390.863,590.802 392.029,590.802 393,591.5C 393.308,590.692 393.808,590.025 394.5,589.5C 396.602,591.204 398.935,592.537 401.5,593.5C 402.696,593.154 402.696,592.654 401.5,592C 402.094,591.536 402.761,591.369 403.5,591.5 Z"/></g>
<g><path style="opacity:1" fill="#3970ce" d="M 626.5,585.5 C 625.525,587.193 624.192,588.693 622.5,590C 615.815,593.006 609.481,596.506 603.5,600.5C 601.597,600.796 599.93,601.463 598.5,602.5C 587.707,607.274 576.707,611.274 565.5,614.5C 564.167,614.5 562.833,614.5 561.5,614.5C 568.168,612.377 574.834,610.044 581.5,607.5C 594.288,602.365 606.621,596.365 618.5,589.5C 621.074,587.976 623.741,586.642 626.5,585.5 Z"/></g>
<g><path style="opacity:1" fill="#050723" d="M 482.5,590.5 C 484.117,591.038 485.784,591.371 487.5,591.5C 502.925,596.439 518.592,596.773 534.5,592.5C 534.389,593.117 534.056,593.617 533.5,594C 517.475,597.275 501.475,597.275 485.5,594C 483.944,593.28 482.944,592.113 482.5,590.5 Z"/></g>
<g><path style="opacity:1" fill="#080916" d="M 618.5,589.5 C 606.621,596.365 594.288,602.365 581.5,607.5C 582.453,605.39 584.119,604.223 586.5,604C 583.895,603.974 582.729,602.807 583,600.5C 585.738,601.482 588.572,602.148 591.5,602.5C 591.281,601.325 591.614,600.325 592.5,599.5C 594.444,598.811 596.444,598.311 598.5,598C 597.149,596.383 595.482,595.216 593.5,594.5C 594.167,594.167 594.833,593.833 595.5,593.5C 596.949,594.28 598.449,594.946 600,595.5C 603.678,594.957 607.178,593.957 610.5,592.5C 611.341,587.087 614.007,586.087 618.5,589.5 Z"/></g>
<g><path style="opacity:1" fill="#2b72fc" d="M 655.5,605.5 C 653.785,604.343 651.785,603.676 649.5,603.5C 643.121,603.036 636.788,602.369 630.5,601.5C 626.387,603.228 622.22,604.894 618,606.5C 614.693,604.675 611.193,603.342 607.5,602.5C 607.5,603.5 607.5,604.5 607.5,605.5C 608.675,605.281 609.675,605.614 610.5,606.5C 607.491,607.023 604.491,606.523 601.5,605C 602.308,604.692 602.975,604.192 603.5,603.5C 601.955,602.548 600.288,602.215 598.5,602.5C 599.93,601.463 601.597,600.796 603.5,600.5C 604.583,600.461 605.583,600.127 606.5,599.5C 610.148,602.496 611.648,601.829 611,597.5C 611.667,596.167 612.333,596.167 613,597.5C 613.974,595.122 614.641,595.456 615,598.5C 618.637,597.541 621.803,595.708 624.5,593C 627.23,592.272 629.897,592.438 632.5,593.5C 633.468,592.511 634.635,591.844 636,591.5C 642.863,592.318 649.696,593.318 656.5,594.5C 655.833,595.5 655.167,596.5 654.5,597.5C 656.738,600.433 657.738,600.099 657.5,596.5C 658.822,596.67 659.989,596.337 661,595.5C 661.333,596.5 661.667,597.5 662,598.5C 664.333,597.167 666.667,595.833 669,594.5C 669.483,595.448 669.649,596.448 669.5,597.5C 667.159,597.992 665.159,599.159 663.5,601C 664.451,601.718 664.617,602.551 664,603.5C 663,602.167 662,602.167 661,603.5C 660.085,602.672 659.419,601.672 659,600.5C 658.683,602.301 658.016,602.634 657,601.5C 656.209,602.745 655.709,604.078 655.5,605.5 Z"/></g>
<g><path style="opacity:1" fill="#2c72fc" d="M 417.5,599.5 C 421.361,600.35 424.528,602.35 427,605.5C 427.333,604.833 427.667,604.167 428,603.5C 430.071,604.103 431.238,605.436 431.5,607.5C 428.963,607.209 426.296,607.042 423.5,607C 423.07,606.08 422.736,605.247 422.5,604.5C 419.515,605.248 416.515,606.248 413.5,607.5C 405.622,604.192 397.955,604.192 390.5,607.5C 388.5,604.833 386.5,604.833 384.5,607.5C 383.148,606.104 381.481,605.437 379.5,605.5C 377.593,606.4 376.093,607.4 375,608.5C 374.167,608.333 373.333,608.167 372.5,608C 373.624,607.751 374.624,607.251 375.5,606.5C 374.833,606.167 374.167,605.833 373.5,605.5C 371.153,606.942 368.82,608.276 366.5,609.5C 365.5,609.5 364.5,609.5 363.5,609.5C 362.833,609.5 362.5,609.167 362.5,608.5C 360.544,606.075 358.378,603.742 356,601.5C 355.116,599.359 355.616,597.693 357.5,596.5C 361.026,600.655 364.026,600.322 366.5,595.5C 367.478,595.977 368.311,596.643 369,597.5C 370.796,596.233 372.629,596.233 374.5,597.5C 375.949,596.383 377.616,595.716 379.5,595.5C 385.737,597.299 392.07,597.799 398.5,597C 399,596.5 399.5,596 400,595.5C 401.973,596.64 403.807,597.973 405.5,599.5C 406.62,598.167 407.953,597.667 409.5,598C 410.694,599.727 410.694,601.56 409.5,603.5C 410.971,602.619 411.804,601.286 412,599.5C 412.308,600.308 412.808,600.975 413.5,601.5C 414.622,600.37 415.956,599.703 417.5,599.5 Z"/></g>
<g><path style="opacity:1" fill="#2b6dfb" d="M 655.5,605.5 C 653.018,607.039 653.018,608.539 655.5,610C 654.371,612.168 652.871,612.668 651,611.5C 650.691,612.766 650.191,613.933 649.5,615C 648.563,615.692 647.897,615.525 647.5,614.5C 647.918,613.778 648.584,613.278 649.5,613C 648.97,611.256 648.97,609.756 649.5,608.5C 648.201,609.09 647.368,610.09 647,611.5C 644.902,609.364 642.568,609.364 640,611.5C 633.857,610.803 627.69,610.47 621.5,610.5C 617.261,610.854 613.261,611.854 609.5,613.5C 608.389,612.389 607.055,611.722 605.5,611.5C 599.226,613.071 592.893,614.405 586.5,615.5C 584.358,614.399 582.192,613.399 580,612.5C 576.374,613.146 572.707,614.146 569,615.5C 567.744,615.352 566.577,615.018 565.5,614.5C 576.707,611.274 587.707,607.274 598.5,602.5C 600.288,602.215 601.955,602.548 603.5,603.5C 602.975,604.192 602.308,604.692 601.5,605C 604.491,606.523 607.491,607.023 610.5,606.5C 609.675,605.614 608.675,605.281 607.5,605.5C 607.5,604.5 607.5,603.5 607.5,602.5C 611.193,603.342 614.693,604.675 618,606.5C 622.22,604.894 626.387,603.228 630.5,601.5C 636.788,602.369 643.121,603.036 649.5,603.5C 651.785,603.676 653.785,604.343 655.5,605.5 Z"/></g>
<g><path style="opacity:1" fill="#2c6dfa" d="M 431.5,607.5 C 432.695,607.322 433.862,606.989 435,606.5C 442.167,609.945 449.667,612.278 457.5,613.5C 458.167,614.167 458.833,614.833 459.5,615.5C 457.599,615.567 455.766,615.233 454,614.5C 450.738,616.959 447.571,616.959 444.5,614.5C 443.318,616.645 441.818,616.645 440,614.5C 435.891,617.317 432.224,616.983 429,613.5C 427.667,614.167 426.333,614.833 425,615.5C 421.989,612.971 418.989,612.971 416,615.5C 410.867,611.774 405.867,611.774 401,615.5C 395.983,614.791 390.983,613.791 386,612.5C 384.266,614.29 382.766,616.29 381.5,618.5C 383.135,619.681 384.802,619.681 386.5,618.5C 386.542,620.188 386.542,621.854 386.5,623.5C 386.167,623.5 385.833,623.5 385.5,623.5C 382.46,622.32 379.794,620.653 377.5,618.5C 377.047,617.542 376.381,616.708 375.5,616C 377.301,615.683 377.634,615.016 376.5,614C 372.93,612.792 369.597,611.292 366.5,609.5C 368.82,608.276 371.153,606.942 373.5,605.5C 374.167,605.833 374.833,606.167 375.5,606.5C 374.624,607.251 373.624,607.751 372.5,608C 373.333,608.167 374.167,608.333 375,608.5C 376.093,607.4 377.593,606.4 379.5,605.5C 381.481,605.437 383.148,606.104 384.5,607.5C 386.5,604.833 388.5,604.833 390.5,607.5C 397.955,604.192 405.622,604.192 413.5,607.5C 416.515,606.248 419.515,605.248 422.5,604.5C 422.736,605.247 423.07,606.08 423.5,607C 426.296,607.042 428.963,607.209 431.5,607.5 Z"/></g>
<g><path style="opacity:1" fill="#2d66f9" d="M 647.5,614.5 C 645.896,615.287 645.229,616.62 645.5,618.5C 642.427,620.138 639.594,619.805 637,617.5C 635.681,619.487 633.848,620.654 631.5,621C 632.833,622.84 632.666,623.34 631,622.5C 629.961,623.244 629.461,624.244 629.5,625.5C 628.596,624.791 628.263,623.791 628.5,622.5C 623.409,622.375 620.076,624.708 618.5,629.5C 617.289,628.726 617.289,627.893 618.5,627C 617.234,626.691 616.067,626.191 615,625.5C 614.667,625.833 614.333,626.167 614,626.5C 611.115,622.931 607.782,622.598 604,625.5C 602.635,625.156 601.468,624.489 600.5,623.5C 597.597,623.694 594.763,623.694 592,623.5C 588.098,626.254 583.765,628.254 579,629.5C 576.921,628.597 574.754,627.931 572.5,627.5C 570.956,627.79 569.623,628.456 568.5,629.5C 567.914,629.291 567.414,628.957 567,628.5C 558.145,628.981 549.311,629.981 540.5,631.5C 515.34,631.024 490.007,630.858 464.5,631C 451.633,629.948 438.799,628.114 426,625.5C 422.833,625.667 419.667,625.833 416.5,626C 416.07,626.92 415.736,627.753 415.5,628.5C 413.119,626.615 410.953,624.615 409,622.5C 407.72,622.613 406.887,623.28 406.5,624.5C 408.274,625.187 409.941,626.02 411.5,627C 408.249,627.674 405.915,629.507 404.5,632.5C 398.776,628.971 392.776,625.971 386.5,623.5C 386.542,621.854 386.542,620.188 386.5,618.5C 384.802,619.681 383.135,619.681 381.5,618.5C 382.766,616.29 384.266,614.29 386,612.5C 390.983,613.791 395.983,614.791 401,615.5C 405.867,611.774 410.867,611.774 416,615.5C 418.989,612.971 421.989,612.971 425,615.5C 426.333,614.833 427.667,614.167 429,613.5C 432.224,616.983 435.891,617.317 440,614.5C 441.818,616.645 443.318,616.645 444.5,614.5C 447.571,616.959 450.738,616.959 454,614.5C 455.766,615.233 457.599,615.567 459.5,615.5C 466.077,616.91 472.744,617.91 479.5,618.5C 481.5,618.5 483.5,618.5 485.5,618.5C 487.833,619.167 490.167,619.833 492.5,620.5C 492.918,621.222 493.584,621.722 494.5,622C 511.969,623.134 529.302,622.134 546.5,619C 549.802,618.339 552.802,617.172 555.5,615.5C 557.565,615.483 559.565,615.15 561.5,614.5C 562.833,614.5 564.167,614.5 565.5,614.5C 566.577,615.018 567.744,615.352 569,615.5C 572.707,614.146 576.374,613.146 580,612.5C 582.192,613.399 584.358,614.399 586.5,615.5C 592.893,614.405 599.226,613.071 605.5,611.5C 607.055,611.722 608.389,612.389 609.5,613.5C 613.261,611.854 617.261,610.854 621.5,610.5C 627.69,610.47 633.857,610.803 640,611.5C 642.568,609.364 644.902,609.364 647,611.5C 647.368,610.09 648.201,609.09 649.5,608.5C 648.97,609.756 648.97,611.256 649.5,613C 648.584,613.278 647.918,613.778 647.5,614.5 Z"/></g>
<g><path style="opacity:1" fill="#3b74da" d="M 417.5,597.5 C 427.522,602.346 437.855,606.346 448.5,609.5C 451.567,610.683 454.567,612.017 457.5,613.5C 449.667,612.278 442.167,609.945 435,606.5C 433.862,606.989 432.695,607.322 431.5,607.5C 431.238,605.436 430.071,604.103 428,603.5C 427.667,604.167 427.333,604.833 427,605.5C 424.528,602.35 421.361,600.35 417.5,599.5C 417.5,598.833 417.5,598.167 417.5,597.5 Z"/></g>
<g><path style="opacity:1" fill="#386bdd" d="M 363.5,609.5 C 364.5,609.5 365.5,609.5 366.5,609.5C 369.597,611.292 372.93,612.792 376.5,614C 377.634,615.016 377.301,615.683 375.5,616C 376.381,616.708 377.047,617.542 377.5,618.5C 372.291,616.281 367.624,613.281 363.5,609.5 Z"/></g>
<g><path style="opacity:1" fill="#050927" d="M 448.5,609.5 C 455.835,610.687 462.835,612.687 469.5,615.5C 465.5,614.833 461.5,614.167 457.5,613.5C 454.567,612.017 451.567,610.683 448.5,609.5 Z"/></g>
<g><path style="opacity:1" fill="#3b6ed4" d="M 457.5,613.5 C 461.5,614.167 465.5,614.833 469.5,615.5C 472.924,616.51 476.257,617.51 479.5,618.5C 472.744,617.91 466.077,616.91 459.5,615.5C 458.833,614.833 458.167,614.167 457.5,613.5 Z"/></g>
<g><path style="opacity:1" fill="#080711" d="M 684.5,591.5 C 685.217,595.986 683.55,599.652 679.5,602.5C 680.167,603.167 680.833,603.833 681.5,604.5C 677.446,603.942 673.279,603.942 669,604.5C 668.289,606.367 668.789,607.867 670.5,609C 666.281,612.371 662.114,615.871 658,619.5C 657,618.167 656,618.167 655,619.5C 655,618.167 655,616.833 655,615.5C 652.561,617.027 650.561,619.027 649,621.5C 648.275,620.941 647.442,620.608 646.5,620.5C 643.613,622.478 640.613,624.312 637.5,626C 636.207,626.49 634.873,626.657 633.5,626.5C 637.5,623.833 641.5,621.167 645.5,618.5C 650.709,615.402 655.709,612.068 660.5,608.5C 668.518,602.808 676.518,597.142 684.5,591.5 Z"/></g>
<g><path style="opacity:1" fill="#041238" d="M 485.5,618.5 C 499.485,619.291 513.485,619.625 527.5,619.5C 516.039,621.815 504.372,622.148 492.5,620.5C 490.167,619.833 487.833,619.167 485.5,618.5 Z"/></g>
<g><path style="opacity:1" fill="#3665e8" d="M 645.5,618.5 C 641.5,621.167 637.5,623.833 633.5,626.5C 627.932,628.461 622.599,630.794 617.5,633.5C 621.089,631.418 624.255,628.751 627,625.5C 628.821,626.795 629.655,626.795 629.5,625.5C 629.461,624.244 629.961,623.244 631,622.5C 632.666,623.34 632.833,622.84 631.5,621C 633.848,620.654 635.681,619.487 637,617.5C 639.594,619.805 642.427,620.138 645.5,618.5 Z"/></g>
<g><path style="opacity:1" fill="#3e71d9" d="M 555.5,615.5 C 552.802,617.172 549.802,618.339 546.5,619C 529.302,622.134 511.969,623.134 494.5,622C 493.584,621.722 492.918,621.222 492.5,620.5C 504.372,622.148 516.039,621.815 527.5,619.5C 536.908,618.657 546.241,617.324 555.5,615.5 Z"/></g>
<g><path style="opacity:1" fill="#305ff9" d="M 629.5,625.5 C 629.655,626.795 628.821,626.795 627,625.5C 624.255,628.751 621.089,631.418 617.5,633.5C 613.164,633.837 609.497,635.504 606.5,638.5C 597.338,641.128 588.338,644.128 579.5,647.5C 579.511,645.983 580.177,644.816 581.5,644C 584.709,643.122 587.709,641.789 590.5,640C 589.228,638.954 587.728,638.454 586,638.5C 583.074,639.264 580.241,640.264 577.5,641.5C 575.407,641.514 573.574,640.848 572,639.5C 568.989,641 569.489,641.834 573.5,642C 569.13,642.435 564.964,643.601 561,645.5C 558.422,643.981 555.589,643.148 552.5,643C 554.087,642.138 555.754,641.471 557.5,641C 554.403,639.1 551.403,639.933 548.5,643.5C 547.554,643.013 546.554,642.68 545.5,642.5C 539.61,643.745 533.61,644.412 527.5,644.5C 521.532,644.432 515.699,643.766 510,642.5C 506.333,645.167 502.667,645.167 499,642.5C 497.779,643.272 496.779,644.272 496,645.5C 493.845,643.833 491.345,642.833 488.5,642.5C 482.938,644.957 477.438,644.624 472,641.5C 471.5,641.667 471,641.833 470.5,642C 471.833,643.84 471.666,644.34 470,643.5C 467.763,644.056 465.763,645.056 464,646.5C 463.626,645.584 463.126,644.75 462.5,644C 459.235,643.803 456.401,642.636 454,640.5C 450.708,642.018 447.875,641.351 445.5,638.5C 438.159,637.548 430.992,637.548 424,638.5C 422.97,638.836 422.47,639.503 422.5,640.5C 420.412,639.061 418.079,638.394 415.5,638.5C 413.883,637.962 412.216,637.629 410.5,637.5C 410.167,636.833 409.833,636.167 409.5,635.5C 408.33,633.721 406.664,632.721 404.5,632.5C 405.915,629.507 408.249,627.674 411.5,627C 409.941,626.02 408.274,625.187 406.5,624.5C 406.887,623.28 407.72,622.613 409,622.5C 410.953,624.615 413.119,626.615 415.5,628.5C 415.736,627.753 416.07,626.92 416.5,626C 419.667,625.833 422.833,625.667 426,625.5C 438.799,628.114 451.633,629.948 464.5,631C 490.007,630.858 515.34,631.024 540.5,631.5C 549.311,629.981 558.145,628.981 567,628.5C 567.414,628.957 567.914,629.291 568.5,629.5C 569.623,628.456 570.956,627.79 572.5,627.5C 574.754,627.931 576.921,628.597 579,629.5C 583.765,628.254 588.098,626.254 592,623.5C 594.763,623.694 597.597,623.694 600.5,623.5C 601.468,624.489 602.635,625.156 604,625.5C 607.782,622.598 611.115,622.931 614,626.5C 614.333,626.167 614.667,625.833 615,625.5C 616.067,626.191 617.234,626.691 618.5,627C 617.289,627.893 617.289,628.726 618.5,629.5C 620.076,624.708 623.409,622.375 628.5,622.5C 628.263,623.791 628.596,624.791 629.5,625.5 Z"/></g>
<g><path style="opacity:1" fill="#3a65d7" d="M 385.5,624.5 C 385.5,624.167 385.5,623.833 385.5,623.5C 385.833,623.5 386.167,623.5 386.5,623.5C 392.776,625.971 398.776,628.971 404.5,632.5C 406.664,632.721 408.33,633.721 409.5,635.5C 401.237,632.368 393.237,628.701 385.5,624.5 Z"/></g>
<g><path style="opacity:1" fill="#090a25" d="M 385.5,624.5 C 393.237,628.701 401.237,632.368 409.5,635.5C 409.833,636.167 410.167,636.833 410.5,637.5C 409.178,637.33 408.011,637.663 407,638.5C 406.167,637 405,635.833 403.5,635C 398.376,632.938 393.376,630.605 388.5,628C 386.937,627.241 385.937,626.074 385.5,624.5 Z"/></g>
<g><path style="opacity:1" fill="#3e65d4" d="M 617.5,633.5 C 615.5,634.833 613.5,636.167 611.5,637.5C 609.883,638.038 608.216,638.371 606.5,638.5C 609.497,635.504 613.164,633.837 617.5,633.5 Z"/></g>
<g><path style="opacity:1" fill="#060d2e" d="M 611.5,637.5 C 610.942,638.79 609.942,639.623 608.5,640C 605.647,641.43 602.647,642.263 599.5,642.5C 601.833,641.167 604.167,639.833 606.5,638.5C 608.216,638.371 609.883,638.038 611.5,637.5 Z"/></g>
<g><path style="opacity:1" fill="#3561e3" d="M 415.5,638.5 C 418.079,638.394 420.412,639.061 422.5,640.5C 425.664,640.566 428.498,641.566 431,643.5C 433.513,643.359 436.013,643.192 438.5,643C 440.751,643.748 442.084,645.248 442.5,647.5C 441.5,647.5 440.5,647.5 439.5,647.5C 438.167,647.5 436.833,647.5 435.5,647.5C 428.59,645.045 421.924,642.045 415.5,638.5 Z"/></g>
<g><path style="opacity:1" fill="#315bf7" d="M 579.5,647.5 C 575.957,648.807 572.29,649.974 568.5,651C 567.944,651.383 567.611,651.883 567.5,652.5C 566.5,652.5 565.5,652.5 564.5,652.5C 562.533,652.739 560.699,652.406 559,651.5C 557.079,653.377 554.746,654.377 552,654.5C 533.356,657.947 514.523,659.28 495.5,658.5C 477.575,656.379 459.908,652.713 442.5,647.5C 442.084,645.248 440.751,643.748 438.5,643C 436.013,643.192 433.513,643.359 431,643.5C 428.498,641.566 425.664,640.566 422.5,640.5C 422.47,639.503 422.97,638.836 424,638.5C 430.992,637.548 438.159,637.548 445.5,638.5C 447.875,641.351 450.708,642.018 454,640.5C 456.401,642.636 459.235,643.803 462.5,644C 463.126,644.75 463.626,645.584 464,646.5C 465.763,645.056 467.763,644.056 470,643.5C 471.666,644.34 471.833,643.84 470.5,642C 471,641.833 471.5,641.667 472,641.5C 477.438,644.624 482.938,644.957 488.5,642.5C 491.345,642.833 493.845,643.833 496,645.5C 496.779,644.272 497.779,643.272 499,642.5C 502.667,645.167 506.333,645.167 510,642.5C 515.699,643.766 521.532,644.432 527.5,644.5C 533.61,644.412 539.61,643.745 545.5,642.5C 546.554,642.68 547.554,643.013 548.5,643.5C 551.403,639.933 554.403,639.1 557.5,641C 555.754,641.471 554.087,642.138 552.5,643C 555.589,643.148 558.422,643.981 561,645.5C 564.964,643.601 569.13,642.435 573.5,642C 569.489,641.834 568.989,641 572,639.5C 573.574,640.848 575.407,641.514 577.5,641.5C 580.241,640.264 583.074,639.264 586,638.5C 587.728,638.454 589.228,638.954 590.5,640C 587.709,641.789 584.709,643.122 581.5,644C 580.177,644.816 579.511,645.983 579.5,647.5 Z"/></g>
<g><path style="opacity:1" fill="#041238" d="M 599.5,642.5 C 595.37,645.324 590.703,646.991 585.5,647.5C 589.94,645.462 594.607,643.796 599.5,642.5 Z"/></g>
<g><path style="opacity:1" fill="#0a0919" d="M 410.5,637.5 C 412.216,637.629 413.883,637.962 415.5,638.5C 421.924,642.045 428.59,645.045 435.5,647.5C 430.901,647.2 426.401,647.533 422,648.5C 421.729,646.193 422.895,645.026 425.5,645C 421.808,643.936 418.142,642.77 414.5,641.5C 412.812,640.479 411.479,639.145 410.5,637.5 Z"/></g>
<g><path style="opacity:1" fill="#4068da" d="M 606.5,638.5 C 604.167,639.833 601.833,641.167 599.5,642.5C 594.607,643.796 589.94,645.462 585.5,647.5C 579.5,649.167 573.5,650.833 567.5,652.5C 567.611,651.883 567.944,651.383 568.5,651C 572.29,649.974 575.957,648.807 579.5,647.5C 588.338,644.128 597.338,641.128 606.5,638.5 Z"/></g>
<g><path style="opacity:1" fill="#021138" d="M 585.5,647.5 C 583.615,649.311 581.281,650.478 578.5,651C 573.937,652.475 569.27,653.308 564.5,653.5C 564.5,653.167 564.5,652.833 564.5,652.5C 565.5,652.5 566.5,652.5 567.5,652.5C 573.5,650.833 579.5,649.167 585.5,647.5 Z"/></g>
<g><path style="opacity:1" fill="#3b62cd" d="M 439.5,647.5 C 440.5,647.5 441.5,647.5 442.5,647.5C 459.908,652.713 477.575,656.379 495.5,658.5C 491.833,658.5 488.167,658.5 484.5,658.5C 475.338,656.638 466.005,654.971 456.5,653.5C 450.619,651.874 444.952,649.874 439.5,647.5 Z"/></g>
<g><path style="opacity:1" fill="#050b2e" d="M 564.5,653.5 C 561.578,655.531 558.245,656.698 554.5,657C 549.192,657.83 543.859,658.33 538.5,658.5C 547.052,656.85 555.719,655.183 564.5,653.5 Z"/></g>
<g><path style="opacity:1" fill="#05092b" d="M 456.5,653.5 C 466.005,654.971 475.338,656.638 484.5,658.5C 477.901,658.643 471.401,657.976 465,656.5C 461.723,656.407 458.89,655.407 456.5,653.5 Z"/></g>
<g><path style="opacity:1" fill="#3b5ec7" d="M 564.5,652.5 C 564.5,652.833 564.5,653.167 564.5,653.5C 555.719,655.183 547.052,656.85 538.5,658.5C 524.513,659.263 510.513,659.596 496.5,659.5C 495.833,659.5 495.5,659.167 495.5,658.5C 514.523,659.28 533.356,657.947 552,654.5C 554.746,654.377 557.079,653.377 559,651.5C 560.699,652.406 562.533,652.739 564.5,652.5 Z"/></g>
<g><path style="opacity:1" fill="#010528" d="M 538.5,658.5 C 530.046,659.959 521.379,660.625 512.5,660.5C 506.989,660.499 501.656,660.166 496.5,659.5C 510.513,659.596 524.513,659.263 538.5,658.5 Z"/></g>
</svg>
